<?xml version="1.0" encoding="UTF-8"?>
<svg version="1.1" xmlns="http://www.w3.org/2000/svg" width="512" height="512">
<path d="M0 0 C0.68648239 -0.00367669 1.37296478 -0.00735338 2.08024967 -0.01114148 C4.37999462 -0.02215222 6.67969434 -0.02601774 8.97946167 -0.02983093 C10.62883141 -0.03609764 12.27819974 -0.04274462 13.92756653 -0.04974365 C19.34443177 -0.07076471 24.76129722 -0.08114534 30.17819214 -0.09111023 C32.04521576 -0.09515875 33.91223923 -0.0992757 35.77926254 -0.10346031 C44.55290267 -0.12250899 53.32653441 -0.13673977 62.10019124 -0.14507228 C72.21602062 -0.15483889 82.33163085 -0.18114472 92.44738305 -0.22157317 C100.27345942 -0.25177341 108.09947311 -0.26654493 115.92560661 -0.26985329 C120.59624643 -0.27219963 125.26665204 -0.28110557 129.93722916 -0.30631447 C134.33514396 -0.3296682 138.73267156 -0.33379923 143.1306324 -0.32355309 C144.73900583 -0.32305936 146.34739878 -0.32933141 147.95571327 -0.34310913 C161.13411804 -0.44962639 170.23029232 1.37309032 179.96725464 10.63545227 C186.24947718 17.79763152 188.17037964 24.81541488 188.17037964 34.14717102 C197.41037964 34.14717102 206.65037964 34.14717102 216.17037964 34.14717102 C216.08787964 31.67217102 216.00537964 29.19717102 215.92037964 26.64717102 C215.8314477 17.87812951 217.50492464 12.85118052 223.48287964 6.33467102 C230.39358423 -0.01100741 236.33986335 -0.40473802 245.56491089 -0.20439148 C252.8341119 0.50441469 257.48967658 3.58092954 262.17037964 9.14717102 C268.27735503 17.6588761 268.17037964 22.9174728 268.17037964 34.14717102 C279.06037964 34.14717102 289.95037964 34.14717102 301.17037964 34.14717102 C301.17037964 29.19717102 301.17037964 24.24717102 301.17037964 19.14717102 C303.85951265 11.75205523 307.4550104 6.42169177 314.17037964 2.14717102 C321.39393572 -0.81199609 329.59306543 -1.22357548 337.09225464 1.02217102 C344.00607945 4.20672063 348.83690046 8.79000163 352.04537964 15.70967102 C353.17037964 20.14717102 353.17037964 20.14717102 353.17037964 34.14717102 C364.06037964 34.14717102 374.95037964 34.14717102 386.17037964 34.14717102 C386.17037964 29.85717102 386.17037964 25.56717102 386.17037964 21.14717102 C388.74097862 12.86412986 391.89384459 6.8200205 399.54537964 2.27217102 C406.76673598 -1.06824681 414.95102069 -1.11410491 422.62741089 0.74092102 C429.08528166 3.49220324 434.61872121 9.58631386 437.38912964 15.94404602 C438.30131235 19.68399515 438.39159913 23.20299752 438.29537964 27.02217102 C438.2863562 27.7105304 438.27733276 28.39888977 438.26803589 29.10810852 C438.24470477 30.7879494 438.2088429 32.46760848 438.17037964 34.14717102 C439.14877808 34.10076477 440.12717651 34.05435852 441.13522339 34.00654602 C450.23428071 33.75603117 457.45886493 33.76284483 464.42037964 40.24092102 C471.27503752 47.58519732 472.84369183 53.32906044 472.54147339 63.34248352 C471.91830245 69.7316256 469.86746096 74.3914575 465.37350464 78.98310852 C456.86354107 85.96127865 449.31918785 86.14717102 438.17037964 86.14717102 C438.17037964 97.03717102 438.17037964 107.92717102 438.17037964 119.14717102 C442.79037964 119.14717102 447.41037964 119.14717102 452.17037964 119.14717102 C460.01319323 121.72835018 466.64038965 125.66997834 470.60787964 133.14717102 C473.30784236 140.10837925 473.44860727 147.93354455 471.28756714 155.05732727 C468.13238141 161.98410919 463.52273759 166.81592278 456.60787964 170.02217102 C452.17037964 171.14717102 452.17037964 171.14717102 438.17037964 171.14717102 C438.17037964 182.03717102 438.17037964 192.92717102 438.17037964 204.14717102 C442.13037964 204.14717102 446.09037964 204.14717102 450.17037964 204.14717102 C458.28894246 206.15045276 464.44169138 209.10357074 469.04537964 216.27217102 C473.26915556 223.4609817 473.46650888 232.57731835 471.59225464 240.63154602 C468.80686124 246.96198556 462.91499203 252.1328278 456.90475464 255.36592102 C453.21098352 256.4212842 449.65944177 256.35981287 445.85787964 256.27217102 C443.32100464 256.23092102 440.78412964 256.18967102 438.17037964 256.14717102 C438.17037964 265.38717102 438.17037964 274.62717102 438.17037964 284.14717102 C440.48037964 284.14717102 442.79037964 284.14717102 445.17037964 284.14717102 C453.89485704 285.92691463 460.40645667 290.45894328 466.17037964 297.14717102 C470.21346902 303.57893619 472.29110751 309.24377829 472.31755066 316.84980774 C472.32122735 317.53473014 472.32490404 318.21965254 472.32869214 318.92533016 C472.33972571 321.22584717 472.34357232 323.52631901 472.34738159 325.82685852 C472.35364672 327.47445825 472.36029356 329.12205656 472.36729431 330.76965332 C472.38833925 336.18714921 472.39870021 341.60464538 472.40866089 347.02217102 C472.41270892 348.88886022 472.41682586 350.75554927 472.42101097 352.62223816 C472.44006717 361.39641771 472.45429474 370.17058885 472.46262294 378.94478512 C472.47238366 389.06061465 472.49867088 399.17622469 472.53912383 409.29197693 C472.56933833 417.11719951 472.58409705 424.9423594 472.58740395 432.76763916 C472.58974925 437.43776689 472.59864109 442.10766027 472.62386513 446.77772522 C472.64724295 451.17727134 472.6513403 455.57643045 472.64110374 459.97602272 C472.64061055 461.58397526 472.64686666 463.19194747 472.66065979 464.79984093 C472.76554774 477.76043124 470.96654734 488.13700438 462.17037964 498.14717102 C461.66893433 498.7530304 461.16748901 499.35888977 460.65084839 499.98310852 C455.18844169 506.07017 447.24613239 510.61161585 439.17037964 512.14717102 C436.6852638 512.24289328 434.22848725 512.28664464 431.74356747 512.2813921 C430.98923299 512.28374433 430.23489851 512.28609656 429.45770541 512.28852007 C426.91562164 512.29520719 424.37358902 512.29475193 421.83149719 512.29434204 C419.99622284 512.29764085 418.1609492 512.30136645 416.3256765 512.30548352 C411.27084764 512.31550979 406.21603065 512.31922132 401.16119325 512.32187283 C395.71382604 512.32577403 390.26646826 512.33535251 384.81910706 512.34408569 C371.65783448 512.36385547 358.49656112 512.37391704 345.33527741 512.38281348 C339.13885755 512.38719561 332.94243855 512.39256262 326.74601936 512.39780235 C306.15009838 512.41481527 285.55417793 512.42930967 264.958251 512.43655109 C259.61253801 512.43846102 254.26682503 512.44037969 248.92111206 512.44233704 C248.25698211 512.44257719 247.59285217 512.44281734 246.90859707 512.44306476 C225.38038344 512.45095607 203.85222494 512.47438423 182.32403537 512.50689298 C159.55981206 512.54120539 136.79561949 512.56090243 114.03136975 512.56419533 C101.62372173 512.56636113 89.21615473 512.57512008 76.80853081 512.60065651 C66.24203193 512.6223533 55.67563374 512.63041892 45.10911512 512.62068973 C39.71841154 512.61614209 34.32791574 512.61805842 28.9372406 512.63745117 C23.9991608 512.6550622 19.0614407 512.65410167 14.12335718 512.63855388 C12.33997757 512.6361747 10.55657317 512.64051745 8.77323144 512.65238253 C-4.66186835 512.73621026 -15.4175667 511.29648626 -25.82962036 502.14717102 C-26.43547974 501.64572571 -27.04133911 501.1442804 -27.66555786 500.62763977 C-33.75261934 495.16523307 -38.29406519 487.22292377 -39.82962036 479.14717102 C-39.92534262 476.66205519 -39.96909398 474.20527863 -39.96384144 471.72035885 C-39.96619367 470.96602437 -39.9685459 470.21168989 -39.97096941 469.43449679 C-39.97765653 466.89241302 -39.97720127 464.3503804 -39.97679138 461.80828857 C-39.98009019 459.97301422 -39.98381579 458.13774059 -39.98793286 456.30246788 C-39.99795913 451.24763902 -40.00167067 446.19282203 -40.00432217 441.13798463 C-40.00822337 435.69061743 -40.01780185 430.24325964 -40.02653503 424.79589844 C-40.04630481 411.63462586 -40.05636638 398.47335251 -40.06526282 385.31206879 C-40.06964495 379.11564893 -40.07501196 372.91922993 -40.08025169 366.72281075 C-40.09726461 346.12688976 -40.11175901 325.53096931 -40.11900043 304.93504238 C-40.12091036 299.58932939 -40.12282903 294.24361641 -40.12478638 288.89790344 C-40.12502653 288.2337735 -40.12526668 287.56964355 -40.1255141 286.88538845 C-40.13340541 265.35717482 -40.15683357 243.82901632 -40.18934232 222.30082675 C-40.22365473 199.53660344 -40.24335177 176.77241088 -40.24664468 154.00816113 C-40.24881047 141.60051311 -40.25756942 129.19294611 -40.28310585 116.78532219 C-40.30480264 106.21882331 -40.31286826 95.65242512 -40.30313907 85.0859065 C-40.29859143 79.69520292 -40.30050777 74.30470713 -40.31990051 68.91403198 C-40.33751154 63.97595218 -40.33655101 59.03823208 -40.32100322 54.10014857 C-40.31862404 52.31676895 -40.32296679 50.53336456 -40.33483187 48.75002282 C-40.4186596 35.31492303 -38.9789356 24.55922468 -29.82962036 14.14717102 C-29.32817505 13.54131165 -28.82672974 12.93545227 -28.31008911 12.31123352 C-20.92119499 4.07738071 -10.87189675 0.03778568 0 0 Z M-15.64212036 25.45967102 C-16.18481567 25.99205383 -16.72751099 26.52443665 -17.28665161 27.07295227 C-21.21443192 32.35308226 -22.27352918 37.39032663 -22.2099371 43.85780239 C-22.21459701 44.60636695 -22.21925693 45.35493151 -22.22405806 46.12617984 C-22.23599448 48.63070678 -22.22661804 51.13468987 -22.21730042 53.63922119 C-22.22147392 55.45447655 -22.22695153 57.2697293 -22.23362023 59.08497721 C-22.24809123 64.07046129 -22.24382492 69.05578029 -22.23645341 74.04127347 C-22.23172818 79.41901099 -22.24422587 84.79671247 -22.25447083 90.17443848 C-22.27167658 100.7086262 -22.27249517 111.24275431 -22.26725792 121.77695244 C-22.26321843 130.33793663 -22.26465716 138.8989032 -22.27000618 147.45988655 C-22.2707546 148.67778728 -22.27150302 149.89568802 -22.27227413 151.15049483 C-22.27380558 153.62455825 -22.27534393 156.09862166 -22.27688909 158.57268507 C-22.29062047 181.77953725 -22.28517187 204.98635574 -22.27370388 228.19320715 C-22.26377003 249.42993053 -22.2767137 270.6665668 -22.30063807 291.90327673 C-22.32501273 313.70374528 -22.33464101 335.50417323 -22.32798535 357.30465513 C-22.3244896 369.5461563 -22.32674869 381.78759046 -22.34423637 394.02908134 C-22.35893788 404.4495799 -22.35962058 414.86996425 -22.34216546 425.29046052 C-22.33363637 430.60789648 -22.33155255 435.92512825 -22.34681702 441.24255371 C-22.36061705 446.11005617 -22.35596134 450.97717859 -22.33657778 455.8446588 C-22.33280307 457.60568275 -22.33578193 459.36673681 -22.34618943 461.12773406 C-22.40004219 470.9372589 -22.32084277 478.23215782 -16.15383911 486.35420227 C-15.61372192 486.88400696 -15.07360474 487.41381165 -14.51712036 487.95967102 C-13.98473755 488.50236633 -13.45235474 489.04506165 -12.90383911 489.60420227 C-7.62370913 493.53198258 -2.58646475 494.59107984 3.88101101 494.52748775 C4.62957557 494.53214767 5.37814013 494.53680759 6.14938846 494.54160872 C8.6539154 494.55354514 11.15789849 494.5441687 13.66242981 494.53485107 C15.47768517 494.53902458 17.29293792 494.54450219 19.10818583 494.55117089 C24.09366991 494.56564189 29.07898891 494.56137558 34.06448209 494.55400407 C39.44221961 494.54927883 44.81992108 494.56177653 50.19764709 494.57202148 C60.73183481 494.58922724 71.26596293 494.59004583 81.80016106 494.58480858 C90.36114525 494.58076909 98.92211182 494.58220782 107.48309517 494.58755684 C108.7009959 494.58830526 109.91889663 494.58905368 111.17370345 494.58982478 C113.64776687 494.59135624 116.12183028 494.59289459 118.59589369 494.59443975 C141.80274587 494.60817113 165.00956435 494.60272253 188.21641577 494.59125454 C209.45313915 494.58132069 230.68977541 494.59426436 251.92648535 494.61818873 C273.7269539 494.64256339 295.52738185 494.65219167 317.32786375 494.64553601 C329.56936492 494.64204026 341.81079908 494.64429934 354.05228996 494.66178703 C364.47278852 494.67648854 374.89317287 494.67717124 385.31366914 494.65971612 C390.6311051 494.65118703 395.94833687 494.64910321 401.26576233 494.66436768 C406.13326479 494.67816771 411.00038721 494.673512 415.86786742 494.65412844 C417.62889137 494.65035372 419.38994543 494.65333259 421.15094268 494.66374009 C430.96046752 494.71759285 438.25536644 494.63839343 446.37741089 488.47138977 C446.90721558 487.93127258 447.43702026 487.3911554 447.98287964 486.83467102 C448.79692261 486.0360968 448.79692261 486.0360968 449.62741089 485.22138977 C453.41072647 480.13546427 454.54526086 475.41393319 454.55805969 469.15765381 C454.56344523 468.49028719 454.56883077 467.82292058 454.5743795 467.13533074 C454.58858895 464.91830068 454.58157328 462.70187363 454.57443237 460.4848175 C454.58013953 458.88762434 454.58710512 457.29043526 454.5952301 455.69325256 C454.61313552 451.36896287 454.61199845 447.04487638 454.60628772 442.72056079 C454.60319303 439.10709301 454.60929121 435.49366411 454.61532646 431.88020188 C454.62936057 423.35595869 454.6278188 414.83181575 454.61642456 406.30757141 C454.60493545 397.51818965 454.6190348 388.72911273 454.64582103 379.93977112 C454.6679776 372.38628602 454.67461578 364.83289662 454.66874462 357.27938133 C454.66537482 352.77102323 454.66779205 348.26286068 454.68499565 343.75452995 C454.70046281 339.51659623 454.69651204 335.27911458 454.67769051 331.04119873 C454.67400442 329.48759612 454.67711372 327.93396001 454.68757629 326.38038826 C454.70078729 324.25630687 454.68924059 322.13372211 454.67158508 320.00970459 C454.67127116 318.22861125 454.67127116 318.22861125 454.67095089 316.41153622 C453.88897788 311.3120714 451.3719831 308.23154488 447.60787964 304.83467102 C443.05640595 301.68365077 438.53227589 301.55626817 433.17037964 302.14717102 C428.52061119 303.33445396 424.01433379 304.88574107 419.48287964 306.45967102 C383.91482029 318.66611503 349.43727507 317.83952238 314.04238892 306.46321106 C287.03352117 297.78332337 261.62319363 295.88406726 235.17037964 308.14717102 C230.98580859 310.30217611 226.92521797 312.66740176 222.85787964 315.03388977 C209.51738527 322.76904808 196.04433304 327.71455829 180.73287964 323.64717102 C168.10073073 319.40181898 157.42902151 309.80025993 151.23287964 298.02217102 C145.95001032 286.32699135 145.87696449 275.4475201 150.27877808 263.31074524 C153.21814281 256.17803705 157.10933663 249.45348558 160.79953003 242.69062805 C173.47708044 219.16886133 176.72482776 194.31977958 169.09518433 168.50996399 C167.81808679 164.37906292 166.49399095 160.26334708 165.17037964 156.14717102 C156.53703519 129.12347778 152.68968296 99.07311839 160.17037964 71.14717102 C160.35262085 70.45993958 160.53486206 69.77270813 160.72262573 69.06465149 C162.44869947 62.65207846 164.38446091 56.32046967 166.60397339 50.06123352 C170.71872699 38.66046983 170.71872699 38.66046983 169.04537964 26.89717102 C166.4334409 23.06632753 163.36714335 20.24555288 159.17037964 18.14717102 C157.04737661 18.04427734 154.92107454 18.00763433 152.79559326 18 C151.80306822 17.99448497 151.80306822 17.99448497 150.79049218 17.98885852 C148.56278415 17.97780401 146.33512274 17.97397482 144.10739136 17.97016907 C142.51418407 17.96390559 140.92097826 17.9572589 139.32777405 17.95025635 C134.99072188 17.93283235 130.65368074 17.92229011 126.31660223 17.91405082 C123.60655494 17.9089021 120.89651108 17.90282621 118.18646622 17.89653969 C109.70648825 17.87748104 101.22651901 17.86325309 92.74652374 17.85492772 C82.96005389 17.8451612 73.17381058 17.81885984 63.38742054 17.77842683 C55.82298462 17.74824771 48.25861356 17.73345702 40.69411862 17.73014671 C36.17665193 17.72779766 31.65942706 17.71885677 27.14202499 17.69368553 C22.88859554 17.67036925 18.63556647 17.66618578 14.38208961 17.67644691 C12.82447921 17.67694157 11.26684887 17.67064173 9.70929909 17.65689087 C-0.26336429 17.57380453 -8.24950971 17.92316528 -15.64212036 25.45967102 Z M235.98559952 19.52264786 C233.10685203 23.68486509 233.63328467 27.82057324 233.68936157 32.76454163 C233.68594387 33.85826781 233.68252617 34.95199399 233.67900491 36.07886338 C233.67239807 39.75651868 233.6944494 43.43344976 233.71627808 47.11103821 C233.71740594 49.74213646 233.71677389 52.37323598 233.71450806 55.0043335 C233.71240997 60.6754333 233.72496694 66.34634912 233.74745941 72.01740265 C233.77995853 80.21677618 233.79038427 88.41606069 233.79541138 96.61549166 C233.80416732 109.91825684 233.83079099 123.22092394 233.86862183 136.52363586 C233.90533418 149.44648243 233.93364973 162.36930237 233.95065308 175.29219055 C233.95170397 176.08866748 233.95275486 176.8851444 233.9538376 177.70575699 C233.95905773 181.70142131 233.96411257 185.69708582 233.96908522 189.69275045 C234.01055658 222.84429538 234.08101312 255.99572008 234.17037964 289.14717102 C239.53133241 287.55795577 244.87881937 285.95744164 250.17037964 284.14717102 C250.28480817 251.12687213 250.37291989 218.10662463 250.42570629 185.08617272 C250.43195987 181.18837365 250.43843147 177.29057498 250.44503784 173.39277649 C250.44634939 172.61679051 250.44766095 171.84080453 250.44901224 171.04130383 C250.47077258 158.47436909 250.51019753 145.90754864 250.55614362 133.34068172 C250.60289085 120.44721839 250.63067135 107.55381494 250.64082211 94.66027033 C250.64768491 86.70332447 250.66936495 78.74670163 250.70996197 70.7898552 C250.73950066 64.68990145 250.74265818 58.59022595 250.73591805 52.49019241 C250.73729589 49.98677835 250.74727205 47.48335229 250.76640701 44.98001099 C250.7912274 41.56598885 250.78532355 38.15335686 250.77165222 34.73930359 C250.78621643 33.74513408 250.80078064 32.75096457 250.81578618 31.72666872 C250.76768341 27.29277269 250.63291572 24.10737962 247.85545635 20.52422523 C245.30771094 17.85086929 245.30771094 17.85086929 241.60787964 17.52217102 C238.23981806 17.9139007 238.23981806 17.9139007 235.98559952 19.52264786 Z M319.17037964 23.14717102 C318.75191455 26.91865381 318.94053476 30.331746 319.17037964 34.14717102 C324.45037964 34.14717102 329.73037964 34.14717102 335.17037964 34.14717102 C335.87359341 26.6064598 335.87359341 26.6064598 333.04537964 19.95967102 C327.16818324 16.25448199 323.0002295 17.40239623 319.17037964 23.14717102 Z M405.17037964 22.14717102 C403.98341891 24.52109248 404.04609988 25.94570013 404.04733181 28.59433937 C404.04534076 29.53535488 404.04334971 30.47637038 404.04129833 31.44590151 C404.04421117 32.48674092 404.04712401 33.52758033 404.05012512 34.59996033 C404.0492707 35.70014476 404.04841627 36.8003292 404.04753596 37.93385255 C404.04588005 41.64511165 404.05140436 45.3563262 404.05685425 49.06758118 C404.05713612 51.71808983 404.05702248 54.36859569 404.05641174 57.019104 C404.05588662 62.73818554 404.05903223 68.4572557 404.06464958 74.17633438 C404.07276612 82.44522821 404.07537996 90.71411653 404.07663757 98.98301391 C404.07882785 112.39776211 404.08548728 125.81250424 404.09494019 139.22724915 C404.10411493 152.26077748 404.11119546 165.29430417 404.115448 178.32783508 C404.11571072 179.13081145 404.11597345 179.93378781 404.11624413 180.76109679 C404.11754914 184.78927068 404.11881285 188.81744458 404.12005603 192.84561849 C404.13042789 226.27947378 404.14811972 259.71332155 404.17037964 293.14717102 C409.45037964 291.49717102 414.73037964 289.84717102 420.17037964 288.14717102 C420.26158423 254.32845068 420.33239463 220.50976441 420.37464096 186.69094844 C420.37964392 182.70044431 420.3848212 178.70994042 420.3901062 174.71943665 C420.39115544 173.92498236 420.39220468 173.13052807 420.39328572 172.31199941 C420.41070203 159.43980963 420.44224644 146.56769113 420.47899082 133.69554368 C420.5163662 120.49246392 420.53860827 107.28942156 420.54673362 94.08629107 C420.55222848 85.93592276 420.56959784 77.78575593 420.60204551 69.63544962 C420.62564259 63.39105637 420.6282081 57.14681746 420.62281036 50.90238571 C420.62391426 48.336862 420.63191631 45.77133092 420.64720154 43.20585251 C420.66700091 39.71247604 420.66235485 36.21997298 420.65139771 32.72657776 C420.66304907 31.70323688 420.67470044 30.679896 420.68670487 29.62554479 C420.69963269 24.23356724 420.69963269 24.23356724 418.35906601 19.5172081 C413.16885612 16.26832782 408.74202144 17.47656251 405.17037964 22.14717102 Z M184.17037964 52.14717102 C182.52037964 57.42717102 180.87037964 62.70717102 179.17037964 68.14717102 C191.38037964 68.14717102 203.59037964 68.14717102 216.17037964 68.14717102 C216.17037964 62.86717102 216.17037964 57.58717102 216.17037964 52.14717102 C205.61037964 52.14717102 195.05037964 52.14717102 184.17037964 52.14717102 Z M268.17037964 52.14717102 C268.17037964 57.42717102 268.17037964 62.70717102 268.17037964 68.14717102 C307.11037964 68.14717102 346.05037964 68.14717102 386.17037964 68.14717102 C386.17037964 62.86717102 386.17037964 57.58717102 386.17037964 52.14717102 C347.23037964 52.14717102 308.29037964 52.14717102 268.17037964 52.14717102 Z M438.17037964 52.14717102 C438.17037964 57.42717102 438.17037964 62.70717102 438.17037964 68.14717102 C446.2363624 68.72481499 446.2363624 68.72481499 453.17037964 65.14717102 C454.7162484 62.05543351 454.46397485 59.5528755 454.17037964 56.14717102 C452.61319487 53.81334718 452.61319487 53.81334718 450.17037964 52.14717102 C447.12597829 51.66521827 447.12597829 51.66521827 443.92037964 51.89717102 C442.02287964 51.97967102 440.12537964 52.06217102 438.17037964 52.14717102 Z M175.17037964 86.14717102 C174.33982571 90.29994064 174.05363202 93.57944182 174.07272339 97.76045227 C174.07522095 98.8849176 174.07771851 100.00938293 174.08029175 101.16792297 C174.08939575 102.58419983 174.09849976 104.00047668 174.10787964 105.45967102 C174.12850464 109.97654602 174.14912964 114.49342102 174.17037964 119.14717102 C188.03037964 119.14717102 201.89037964 119.14717102 216.17037964 119.14717102 C216.17037964 108.25717102 216.17037964 97.36717102 216.17037964 86.14717102 C202.64037964 86.14717102 189.11037964 86.14717102 175.17037964 86.14717102 Z M268.17037964 86.14717102 C268.17037964 97.03717102 268.17037964 107.92717102 268.17037964 119.14717102 C279.06037964 119.14717102 289.95037964 119.14717102 301.17037964 119.14717102 C301.17037964 108.25717102 301.17037964 97.36717102 301.17037964 86.14717102 C290.28037964 86.14717102 279.39037964 86.14717102 268.17037964 86.14717102 Z M319.17037964 86.14717102 C319.17037964 97.03717102 319.17037964 107.92717102 319.17037964 119.14717102 C324.45037964 119.14717102 329.73037964 119.14717102 335.17037964 119.14717102 C335.17037964 108.25717102 335.17037964 97.36717102 335.17037964 86.14717102 C329.89037964 86.14717102 324.61037964 86.14717102 319.17037964 86.14717102 Z M353.17037964 86.14717102 C353.17037964 97.03717102 353.17037964 107.92717102 353.17037964 119.14717102 C364.06037964 119.14717102 374.95037964 119.14717102 386.17037964 119.14717102 C386.17037964 108.25717102 386.17037964 97.36717102 386.17037964 86.14717102 C375.28037964 86.14717102 364.39037964 86.14717102 353.17037964 86.14717102 Z M178.17037964 137.14717102 C179.84043575 145.97389114 179.84043575 145.97389114 183.17037964 153.14717102 C194.06037964 153.14717102 204.95037964 153.14717102 216.17037964 153.14717102 C216.17037964 147.86717102 216.17037964 142.58717102 216.17037964 137.14717102 C203.63037964 137.14717102 191.09037964 137.14717102 178.17037964 137.14717102 Z M268.17037964 137.14717102 C268.17037964 142.42717102 268.17037964 147.70717102 268.17037964 153.14717102 C307.11037964 153.14717102 346.05037964 153.14717102 386.17037964 153.14717102 C386.17037964 147.86717102 386.17037964 142.58717102 386.17037964 137.14717102 C347.23037964 137.14717102 308.29037964 137.14717102 268.17037964 137.14717102 Z M438.17037964 137.14717102 C438.17037964 142.42717102 438.17037964 147.70717102 438.17037964 153.14717102 C445.71109086 153.85038479 445.71109086 153.85038479 452.35787964 151.02217102 C454.51701932 147.59732877 454.9966883 146.11345261 454.17037964 142.14717102 C452.48868317 139.04626662 452.48868317 139.04626662 449.17037964 137.14717102 C445.39889685 136.72870594 441.98580465 136.91732614 438.17037964 137.14717102 Z M188.17037964 171.14717102 C189.16037964 182.03717102 190.15037964 192.92717102 191.17037964 204.14717102 C199.42037964 204.14717102 207.67037964 204.14717102 216.17037964 204.14717102 C216.17037964 193.25717102 216.17037964 182.36717102 216.17037964 171.14717102 C206.93037964 171.14717102 197.69037964 171.14717102 188.17037964 171.14717102 Z M268.17037964 171.14717102 C268.17037964 182.03717102 268.17037964 192.92717102 268.17037964 204.14717102 C279.06037964 204.14717102 289.95037964 204.14717102 301.17037964 204.14717102 C301.17037964 193.25717102 301.17037964 182.36717102 301.17037964 171.14717102 C290.28037964 171.14717102 279.39037964 171.14717102 268.17037964 171.14717102 Z M319.17037964 171.14717102 C319.17037964 182.03717102 319.17037964 192.92717102 319.17037964 204.14717102 C324.45037964 204.14717102 329.73037964 204.14717102 335.17037964 204.14717102 C335.17037964 193.25717102 335.17037964 182.36717102 335.17037964 171.14717102 C329.89037964 171.14717102 324.61037964 171.14717102 319.17037964 171.14717102 Z M353.17037964 171.14717102 C353.17037964 182.03717102 353.17037964 192.92717102 353.17037964 204.14717102 C364.06037964 204.14717102 374.95037964 204.14717102 386.17037964 204.14717102 C386.17037964 193.25717102 386.17037964 182.36717102 386.17037964 171.14717102 C375.28037964 171.14717102 364.39037964 171.14717102 353.17037964 171.14717102 Z M188.17037964 222.14717102 C187.34537964 224.41592102 186.52037964 226.68467102 185.67037964 229.02217102 C185.40934448 229.73486145 185.14830933 230.44755188 184.87936401 231.18183899 C183.59876167 234.5781509 183.59876167 234.5781509 183.17037964 238.14717102 C194.06037964 238.14717102 204.95037964 238.14717102 216.17037964 238.14717102 C216.17037964 232.86717102 216.17037964 227.58717102 216.17037964 222.14717102 C206.93037964 222.14717102 197.69037964 222.14717102 188.17037964 222.14717102 Z M268.17037964 222.14717102 C268.17037964 227.42717102 268.17037964 232.70717102 268.17037964 238.14717102 C307.11037964 238.14717102 346.05037964 238.14717102 386.17037964 238.14717102 C386.17037964 232.86717102 386.17037964 227.58717102 386.17037964 222.14717102 C347.23037964 222.14717102 308.29037964 222.14717102 268.17037964 222.14717102 Z M438.17037964 222.14717102 C438.17037964 227.42717102 438.17037964 232.70717102 438.17037964 238.14717102 C440.06787964 238.22967102 441.96537964 238.31217102 443.92037964 238.39717102 C445.52139526 238.4667804 445.52139526 238.4667804 447.15475464 238.53779602 C450.25737995 238.39073924 450.25737995 238.39073924 452.52975464 236.35029602 C454.91126167 233.1522723 454.72522694 231.03110212 454.17037964 227.14717102 C452.30329459 224.78219663 450.84976533 223.48686387 448.17037964 222.14717102 C446.46335229 222.07721088 444.75369961 222.06276948 443.04537964 222.08467102 C441.43662964 222.10529602 439.82787964 222.12592102 438.17037964 222.14717102 Z M173.17037964 256.14717102 C164.95722791 271.19933611 164.95722791 271.19933611 164.98287964 287.08467102 C168.59690487 295.24109493 176.78650063 303.8415273 185.17037964 307.14717102 C196.73539428 310.38227562 206.0192575 304.22273209 216.17037964 299.14717102 C216.17037964 284.95717102 216.17037964 270.76717102 216.17037964 256.14717102 C201.98037964 256.14717102 187.79037964 256.14717102 173.17037964 256.14717102 Z M268.17037964 256.14717102 C268.17037964 264.39717102 268.17037964 272.64717102 268.17037964 281.14717102 C275.6633046 281.76176298 275.6633046 281.76176298 283.15646362 282.37348938 C284.58454346 282.49155945 284.58454346 282.49155945 286.04147339 282.61201477 C287.47897949 282.72984314 287.47897949 282.72984314 288.94552612 282.85005188 C293.02606893 283.22600923 297.09761757 283.6946419 301.17037964 284.14717102 C301.17037964 274.90717102 301.17037964 265.66717102 301.17037964 256.14717102 C290.28037964 256.14717102 279.39037964 256.14717102 268.17037964 256.14717102 Z M319.17037964 256.14717102 C319.17037964 267.03717102 319.17037964 277.92717102 319.17037964 289.14717102 C328.34103223 293.22857936 328.34103223 293.22857936 335.17037964 294.14717102 C335.17037964 281.60717102 335.17037964 269.06717102 335.17037964 256.14717102 C329.89037964 256.14717102 324.61037964 256.14717102 319.17037964 256.14717102 Z M353.17037964 256.14717102 C353.17037964 270.00717102 353.17037964 283.86717102 353.17037964 298.14717102 C357.68725464 298.16779602 362.20412964 298.18842102 366.85787964 298.20967102 C368.27415649 298.21877502 369.69043335 298.22787903 371.14962769 298.23725891 C372.83632568 298.24100525 372.83632568 298.24100525 374.55709839 298.24482727 C376.27739258 298.2526825 376.27739258 298.2526825 378.03244019 298.26069641 C381.5064913 298.21907932 381.5064913 298.21907932 386.17037964 297.14717102 C386.17037964 283.61717102 386.17037964 270.08717102 386.17037964 256.14717102 C375.28037964 256.14717102 364.39037964 256.14717102 353.17037964 256.14717102 Z " fill="#000000" transform="translate(39.829620361328125,-0.1471710205078125)"/>
<path d="M0 0 C5.83280315 3.40007409 10.60348491 8.31131935 13.02734375 14.7265625 C14.65151836 22.32394123 14.7716899 30.58583303 10.62109375 37.3359375 C10.25113281 37.86445313 9.88117188 38.39296875 9.5 38.9375 C8.943125 39.824375 8.38625 40.71125 7.8125 41.625 C2.13839622 47.29910378 -4.36382484 49.66175499 -12.25 50.1875 C-20.10868227 50.02500845 -26.07800699 47.26131614 -31.7734375 41.90625 C-36.93247193 36.02355011 -38.87414648 29.1493241 -38.78515625 21.4453125 C-38.05265732 15.00333562 -35.15296017 8.46121127 -30.5 3.9375 C-21.3478105 -2.5785619 -10.66030238 -4.94884662 0 0 Z M-19.5 19.9375 C-20.75331017 23.19610644 -20.73279906 24.41063898 -19.3125 27.625 C-17.41619967 30.04441767 -16.43118128 31.07538786 -13.5 31.9375 C-10.30830587 31.77791529 -8.77522616 31.13834071 -6.1875 29.25 C-4.29589614 27.00344359 -4.29589614 27.00344359 -3.9375 24 C-4.69942251 19.85175523 -6.13655511 18.42352449 -9.5 15.9375 C-14.35972396 15.04489764 -16.59839316 15.96122396 -19.5 19.9375 Z " fill="#000000" transform="translate(80.5,420.0625)"/>
<path d="M0 0 C6.72999827 4.51053076 10.49123945 9.84506813 12.75 17.5625 C13.59386459 25.7901797 12.50655237 33.41323008 7.3515625 40.15625 C1.16478138 46.5321467 -4.33864747 49.11162999 -13.1875 49.3125 C-20.6183458 49.2127571 -25.74490067 48.01856962 -31.2578125 42.90625 C-38.09830175 35.55088522 -39.67339796 29.82095244 -39.37109375 19.8046875 C-38.74809504 13.41731128 -36.71125326 8.71703419 -32.16796875 4.1640625 C-22.5904559 -3.58106623 -11.22217272 -5.61108636 0 0 Z M-20 18 C-21.54586876 21.09173752 -21.29359521 23.59429552 -21 27 C-19.58333333 29.58333333 -19.58333333 29.58333333 -17 31 C-13.01547016 31.56921855 -10.94506252 31.67149179 -7.625 29.3125 C-5.7500814 26.64434661 -5 25.27456205 -5 22 C-6.83050117 18.19255758 -7.91436115 16.39267788 -11.9375 14.9375 C-15.54505899 15.01112365 -17.16663768 15.81426336 -20 18 Z " fill="#000000" transform="translate(167,45)"/>
<path d="M0 0 C3.14674823 2.74331897 3.89954133 4.37492386 4.5625 8.5 C4 12 4 12 2 14.9375 C-1.33588599 17.23092162 -3.09984094 17.75815509 -7.0625 17.48046875 C-10.5685303 16.61102978 -12.01216563 14.91963173 -14 12 C-14.68577608 7.73294881 -14.50023114 5.79347009 -12.1875 2.125 C-8.28149586 -1.66940403 -5.0774203 -1.24708569 0 0 Z " fill="#000000" transform="translate(406,333)"/>
<path d="M0 0 C3 2.0625 3 2.0625 5 5 C5.66350721 9.12848931 5.43514338 11.19933618 3.4375 14.875 C0.23599794 17.66605308 -1.78105729 18 -6 18 C-9.57387602 16.41161066 -10.81089572 15.28365642 -13 12 C-13.50418234 7.36152243 -12.77954397 4.74169381 -10 1 C-6.77061633 -0.61469184 -3.49143247 -0.58079278 0 0 Z " fill="#000000" transform="translate(422,418)"/>
<path d="M0 0 C1.875 1.0625 1.875 1.0625 3 3 C3.91565304 6.61644479 4.38395715 9.78413569 3.25 13.375 C2 15 2 15 -1 17 C-5.86581934 17.5493667 -7.8976444 17.73490373 -12 15 C-14.77041398 10.84437903 -14.70476018 8.93332128 -14 4 C-10.05000255 -1.31206554 -6.19282541 -1.32703402 0 0 Z " fill="#000000" transform="translate(466,333)"/>
<path d="M0 0 C2.125 0.4140625 2.125 0.4140625 4.625 1.9765625 C6.62633412 5.22873044 7.05811096 7.60138749 7.125 11.4140625 C6.125 14.2265625 6.125 14.2265625 4.125 16.4140625 C0.50876861 17.9543092 -1.76306222 18.66677563 -5.625 17.7890625 C-8.24759386 16.18636625 -9.46545163 15.15897249 -10.875 12.4140625 C-11.38542042 8.40361632 -11.21947773 6.11799526 -9.4375 2.4765625 C-6.17263403 -0.15125645 -4.10203913 -0.25637745 0 0 Z " fill="#000000" transform="translate(78.875,383.5859375)"/>
<path d="M0 0 C1.60044197 2.27431228 1.98933912 3.91324765 2.1875 6.6875 C1.19564715 10.15898497 -0.01024426 12.41348557 -2.8125 14.6875 C-6.97263014 15.53791334 -10.66701454 15.3300894 -14.375 13.25 C-16.51578981 9.43380947 -16.59795124 5.96035474 -15.8125 1.6875 C-14.02437395 -0.86696579 -12.72465438 -1.88682795 -9.9375 -3.1875 C-6.16601549 -3.40935203 -3.03427695 -2.19723504 0 0 Z " fill="#000000" transform="translate(143.8125,113.3125)"/>
</svg>
