<?xml version="1.0" encoding="UTF-8"?>
<svg version="1.1" xmlns="http://www.w3.org/2000/svg" width="512" height="512">
<path d="M0 0 C0.82781322 -0.00265183 1.65562643 -0.00530365 2.50852489 -0.00803584 C5.31255507 -0.01576144 8.11654169 -0.01628925 10.92058182 -0.01688576 C12.93918482 -0.02089823 14.95778701 -0.02533609 16.97638822 -0.03016531 C22.54705642 -0.04216058 28.11771595 -0.04778608 33.68839455 -0.05234647 C39.68717267 -0.05829135 45.68594036 -0.0699039 51.68471146 -0.08063698 C65.49762623 -0.10402506 79.31054419 -0.11857165 93.12347218 -0.13086639 C97.90133725 -0.13511969 102.67920194 -0.13968538 107.45706654 -0.14444971 C132.84995494 -0.16970783 158.24284398 -0.19176053 183.63574219 -0.20417786 C189.52050402 -0.20709929 195.40526583 -0.21006678 201.29002762 -0.21308327 C202.02115021 -0.21345418 202.7522728 -0.21382509 203.50555063 -0.21420723 C227.21616882 -0.22636573 250.92671283 -0.25731415 274.63729617 -0.29900479 C299.00404295 -0.34177117 323.37075055 -0.36841614 347.73753589 -0.37365257 C351.17755159 -0.37439305 354.61756722 -0.37530373 358.05758286 -0.37631035 C359.07315215 -0.37659627 359.07315215 -0.37659627 360.109238 -0.37688797 C371.01492803 -0.38040457 381.9205253 -0.40071632 392.82618124 -0.42710699 C403.78393154 -0.4532243 414.74158925 -0.46057557 425.69936845 -0.4500057 C431.6383198 -0.44480376 437.57697559 -0.44780545 443.5158844 -0.47247124 C448.94912739 -0.49484919 454.38186055 -0.49431324 459.81511179 -0.47526737 C461.78419709 -0.47245123 463.75331613 -0.47815462 465.72234687 -0.4930803 C468.39317118 -0.51209328 471.06215997 -0.50046139 473.73294067 -0.48101807 C474.50273616 -0.49386729 475.27253165 -0.50671651 476.06565428 -0.5199551 C481.85671131 -0.42691641 484.21185167 1.15692667 488.11815262 5.13701439 C489.68080265 8.26231445 489.26044122 11.58795806 489.25516701 15.01886177 C489.25781883 15.84667499 489.26047066 16.6744882 489.26320285 17.52738667 C489.27092844 20.33141684 489.27145626 23.13540346 489.27205276 25.93944359 C489.27606524 27.95804659 489.2805031 29.97664878 489.28533232 31.99524999 C489.29732758 37.56591819 489.30295309 43.13657772 489.30751348 48.70725632 C489.31345835 54.70603444 489.32507091 60.70480213 489.33580399 66.70357323 C489.35919207 80.516488 489.37373866 94.32940596 489.3860334 108.14233395 C489.3902867 112.92019903 489.39485239 117.69806371 489.39961672 122.47592831 C489.42487483 147.86881671 489.44692754 173.26170575 489.45934486 198.65460396 C489.46226629 204.53936579 489.46523379 210.4241276 489.46825027 216.30888939 C489.46862118 217.04001198 489.46899209 217.77113457 489.46937424 218.5244124 C489.48153274 242.23503059 489.51248116 265.9455746 489.5541718 289.65615794 C489.59693818 314.02290472 489.62358315 338.38961232 489.62881958 362.75639766 C489.62956005 366.19641336 489.63047074 369.63642899 489.63147736 373.07644463 C489.63166797 373.75349082 489.63185859 374.43053702 489.63205498 375.12809977 C489.63557157 386.0337898 489.65588333 396.93938707 489.68227399 407.84504301 C489.70839131 418.80279331 489.71574258 429.76045102 489.7051727 440.71823022 C489.69997077 446.65718157 489.70297246 452.59583736 489.72763824 458.53474617 C489.75001619 463.96798917 489.74948024 469.40072232 489.73043437 474.83397356 C489.72761824 476.80305886 489.73332163 478.7721779 489.74824731 480.74120864 C489.76726029 483.41203295 489.7556284 486.08102174 489.73618507 488.75180244 C489.74903429 489.52159793 489.76188352 490.29139342 489.77512211 491.08451605 C489.68208341 496.87557308 488.09824033 499.23071344 484.11815262 503.13701439 C480.99285255 504.69966442 477.66720895 504.27930299 474.23630524 504.27402878 C473.40849202 504.2766806 472.58067881 504.27933243 471.72778034 504.28206462 C468.92375017 504.28979021 466.11976355 504.29031803 463.31572342 504.29091454 C461.29712042 504.29492701 459.27851823 504.29936487 457.25991702 504.30419409 C451.68924882 504.31618935 446.11858929 504.32181486 440.54791069 504.32637525 C434.54913257 504.33232012 428.55036488 504.34393268 422.55159378 504.35466576 C408.73867901 504.37805384 394.92576105 504.39260043 381.11283306 504.40489517 C376.33496798 504.40914847 371.55710329 504.41371416 366.7792387 504.41847849 C341.3863503 504.4437366 315.99346126 504.46578931 290.60056305 504.47820663 C284.71580121 504.48112807 278.8310394 504.48409556 272.94627762 504.48711205 C272.21515503 504.48748295 271.48403243 504.48785386 270.73075461 504.48823601 C247.02013642 504.50039451 223.30959241 504.53134293 199.59900907 504.57303357 C175.23226229 504.61579995 150.86555469 504.64244492 126.49876935 504.64768135 C123.05875365 504.64842182 119.61873801 504.64933251 116.17872238 504.65033913 C115.16315309 504.65062505 115.16315309 504.65062505 114.12706724 504.65091675 C103.22137721 504.65443334 92.31577994 504.6747451 81.410124 504.70113576 C70.4523737 504.72725308 59.49471599 504.73460435 48.53693679 504.72403447 C42.59798543 504.71883254 36.65932964 504.72183423 30.72042084 504.74650002 C25.28717784 504.76887797 19.85444469 504.76834201 14.42119345 504.74929614 C12.45210815 504.74648001 10.48298911 504.7521834 8.51395836 504.76710908 C5.84313406 504.78612206 3.17414527 504.77449017 0.50336456 504.75504684 C-0.26643093 504.76789607 -1.03622642 504.78074529 -1.82934904 504.79398388 C-7.62040607 504.70094518 -9.97554644 503.1171021 -13.88184738 499.13701439 C-15.44449741 496.01171433 -15.02413598 492.68607072 -15.01886177 489.25516701 C-15.0215136 488.42735379 -15.02416542 487.59954058 -15.02689761 486.74664211 C-15.03462321 483.94261194 -15.03515102 481.13862532 -15.03574753 478.33458519 C-15.03976 476.31598219 -15.04419786 474.29738 -15.04902709 472.27877879 C-15.06102235 466.70811059 -15.06664785 461.13745106 -15.07120824 455.56677246 C-15.07715312 449.56799434 -15.08876567 443.56922665 -15.09949875 437.57045555 C-15.12288684 423.75754078 -15.13743342 409.94462282 -15.14972817 396.13169483 C-15.15398146 391.35382975 -15.15854715 386.57596506 -15.16331148 381.79810047 C-15.1885696 356.40521207 -15.2106223 331.01232303 -15.22303963 305.61942482 C-15.22596106 299.73466299 -15.22892856 293.84990118 -15.23194504 287.96513939 C-15.23231595 287.2340168 -15.23268686 286.5028942 -15.233069 285.74961638 C-15.2452275 262.03899819 -15.27617592 238.32845418 -15.31786656 214.61787084 C-15.36063294 190.25112406 -15.38727791 165.88441646 -15.39251434 141.51763112 C-15.39325482 138.07761542 -15.3941655 134.63759978 -15.39517212 131.19758415 C-15.39536273 130.52053796 -15.39555335 129.84349176 -15.39574974 129.14592901 C-15.39926634 118.24023898 -15.41957809 107.33464171 -15.44596876 96.42898577 C-15.47208607 85.47123547 -15.47943734 74.51357776 -15.46886747 63.55579856 C-15.46366553 57.6168472 -15.46666722 51.67819141 -15.49133301 45.73928261 C-15.51371096 40.30603961 -15.51317501 34.87330646 -15.49412914 29.44005522 C-15.491313 27.47096992 -15.49701639 25.50185088 -15.51194207 23.53282014 C-15.53095505 20.86199583 -15.51932316 18.19300704 -15.49987984 15.52222633 C-15.51272906 14.75243084 -15.52557828 13.98263535 -15.53881687 13.18951273 C-15.44577818 7.3984557 -13.8619351 5.04331534 -9.88184738 1.13701439 C-6.75654732 -0.42563564 -3.43090372 -0.00527421 0 0 Z M9.11815262 24.13701439 C9.11815262 110.92701439 9.11815262 197.71701439 9.11815262 287.13701439 C27.23941356 286.40478519 27.23941356 286.40478519 45.11815262 284.38701439 C46.29184402 284.21218529 47.46553543 284.03735619 48.67479324 283.85722923 C59.62729719 282.16502874 70.39847725 279.94391193 81.11815262 277.13701439 C82.34525955 276.81676292 82.34525955 276.81676292 83.59715652 276.49004173 C104.4957998 270.90567068 127.00360639 263.21337854 145.11815262 251.13701439 C145.41223764 248.1166535 145.50902031 245.30141062 145.47891617 242.2787075 C145.48147944 241.35003227 145.48404272 240.42135703 145.48668367 239.46454012 C145.49164929 236.33354452 145.4750829 233.20302461 145.45872879 230.07207298 C145.45788312 227.83535333 145.45835649 225.59863285 145.4600563 223.36191368 C145.46092002 217.27331099 145.44323344 211.1848842 145.42233443 205.09632254 C145.4036302 198.73950362 145.40182214 192.38268104 145.39825821 186.02583885 C145.38998157 175.35094854 145.37121988 164.67612801 145.34447098 154.0012722 C145.31694492 143.00485618 145.29573863 132.00845783 145.28294754 121.01201439 C145.28214355 120.3275772 145.28133956 119.64314001 145.2805112 118.93796229 C145.2735729 112.98458756 145.26711439 107.03121232 145.26070309 101.07783699 C145.23246082 75.43083517 145.17270349 49.78400497 145.11815262 24.13701439 C100.23815262 24.13701439 55.35815262 24.13701439 9.11815262 24.13701439 Z M169.11815262 24.13701439 C169.11815262 94.42701439 169.11815262 164.71701439 169.11815262 237.13701439 C179.12328669 231.34931687 179.12328669 231.34931687 188.49315262 224.82451439 C189.77896161 223.8627082 191.0654345 222.90178899 192.35252762 221.94170189 C192.98481277 221.46829369 193.61709793 220.99488548 194.26854324 220.50713158 C196.51697601 218.84158185 198.79770284 217.22622421 201.08592606 215.6160183 C209.45046371 209.72831044 217.55343319 203.50739169 225.67674637 197.29326439 C234.10965248 190.84412913 242.59434579 184.46545565 251.11815262 178.13701439 C251.83970535 177.60044212 252.56125809 177.06386986 253.30467606 176.51103783 C266.19155992 166.96321746 279.52235781 158.09715718 292.90355301 149.26421165 C293.96437088 148.56223656 295.02518875 147.86026146 296.11815262 147.13701439 C297.23029664 146.5832574 297.23029664 146.5832574 298.36490822 146.01831341 C303.24913715 143.37413397 303.24913715 143.37413397 305.93576717 138.72268963 C306.22813206 135.68613395 306.2317862 132.76515879 306.13988113 129.71562767 C306.14096595 128.55517874 306.14205076 127.3947298 306.14316845 126.19911575 C306.13646121 122.45026144 306.06799754 118.70545826 305.99705887 114.95732689 C305.98382254 112.64020794 305.97464324 110.32306213 305.96959305 108.00591087 C305.92245013 99.42420105 305.79679799 90.84306771 305.68065262 82.26201439 C305.40221512 53.49013939 305.40221512 53.49013939 305.11815262 24.13701439 C260.23815262 24.13701439 215.35815262 24.13701439 169.11815262 24.13701439 Z M329.11815262 24.13701439 C329.11815262 58.45701439 329.11815262 92.77701439 329.11815262 128.13701439 C334.11263888 126.48110225 334.11263888 126.48110225 338.91112137 124.50810814 C379.8881716 106.41692487 420.50562187 100.192699 465.11815262 96.13701439 C465.11815262 72.37701439 465.11815262 48.61701439 465.11815262 24.13701439 C420.23815262 24.13701439 375.35815262 24.13701439 329.11815262 24.13701439 Z M346.11815262 148.13701439 C345.42012527 148.46524193 344.72209793 148.79346947 344.00291824 149.1316433 C339.31625198 151.35860067 334.70998503 153.72162621 330.11815262 156.13701439 C329.00851151 156.71177513 329.00851151 156.71177513 327.8764534 157.2981472 C300.79186799 171.38956593 276.32675568 189.77575119 252.14940262 208.28935814 C245.1793212 213.62615575 238.1598787 218.89525174 231.11815262 224.13701439 C230.38951004 224.68035423 229.66086746 225.22369408 228.91014481 225.78349876 C160.46206896 276.7635094 94.55094206 304.37039717 9.11815262 312.13701439 C9.11815262 367.57701439 9.11815262 423.01701439 9.11815262 480.13701439 C159.59815262 480.13701439 310.07815262 480.13701439 465.11815262 480.13701439 C465.11815262 361.66701439 465.11815262 243.19701439 465.11815262 121.13701439 C424.36077947 121.13701439 382.91826311 130.76094841 346.11815262 148.13701439 Z " fill="#000000" transform="translate(18.881847381591797,3.862985610961914)"/>
<path d="M0 0 C3.12578143 1.6720747 5.39281175 3.7856235 7 7 C7.51512617 11.09157355 7.94367269 15.23589546 5.953125 18.95703125 C3.55501226 21.85592636 1.60351712 23.79811835 -2.171875 24.2734375 C-9.98876369 24.58137554 -9.98876369 24.58137554 -13.5625 21.625 C-17.3057723 17.59378368 -17.39037018 14.90519941 -17.359375 9.55078125 C-16.78039966 5.44131496 -15.00085071 3.78650423 -12 1 C-8.27533151 -0.86233425 -4.05504687 -0.57130829 0 0 Z " fill="#000000" transform="translate(453,436)"/>
<path d="M0 0 C3.12578143 1.6720747 5.39281175 3.7856235 7 7 C7.51512617 11.09157355 7.94367269 15.23589546 5.953125 18.95703125 C3.55501226 21.85592636 1.60351712 23.79811835 -2.171875 24.2734375 C-9.98876369 24.58137554 -9.98876369 24.58137554 -13.5625 21.625 C-17.3057723 17.59378368 -17.39037018 14.90519941 -17.359375 9.55078125 C-16.78039966 5.44131496 -15.00085071 3.78650423 -12 1 C-8.27533151 -0.86233425 -4.05504687 -0.57130829 0 0 Z " fill="#000000" transform="translate(325,436)"/>
<path d="M0 0 C3.12578143 1.6720747 5.39281175 3.7856235 7 7 C7.51512617 11.09157355 7.94367269 15.23589546 5.953125 18.95703125 C3.55501226 21.85592636 1.60351712 23.79811835 -2.171875 24.2734375 C-9.98876369 24.58137554 -9.98876369 24.58137554 -13.5625 21.625 C-17.3057723 17.59378368 -17.39037018 14.90519941 -17.359375 9.55078125 C-16.78039966 5.44131496 -15.00085071 3.78650423 -12 1 C-8.27533151 -0.86233425 -4.05504687 -0.57130829 0 0 Z " fill="#000000" transform="translate(197,436)"/>
<path d="M0 0 C3.12578143 1.6720747 5.39281175 3.7856235 7 7 C7.51512617 11.09157355 7.94367269 15.23589546 5.953125 18.95703125 C3.55501226 21.85592636 1.60351712 23.79811835 -2.171875 24.2734375 C-9.98876369 24.58137554 -9.98876369 24.58137554 -13.5625 21.625 C-17.3057723 17.59378368 -17.39037018 14.90519941 -17.359375 9.55078125 C-16.78039966 5.44131496 -15.00085071 3.78650423 -12 1 C-8.27533151 -0.86233425 -4.05504687 -0.57130829 0 0 Z " fill="#000000" transform="translate(69,436)"/>
<path d="M0 0 C3.12578143 1.6720747 5.39281175 3.7856235 7 7 C7.51512617 11.09157355 7.94367269 15.23589546 5.953125 18.95703125 C3.55501226 21.85592636 1.60351712 23.79811835 -2.171875 24.2734375 C-9.98876369 24.58137554 -9.98876369 24.58137554 -13.5625 21.625 C-17.3057723 17.59378368 -17.39037018 14.90519941 -17.359375 9.55078125 C-16.78039966 5.44131496 -15.00085071 3.78650423 -12 1 C-8.27533151 -0.86233425 -4.05504687 -0.57130829 0 0 Z " fill="#000000" transform="translate(453,308)"/>
<path d="M0 0 C3.12578143 1.6720747 5.39281175 3.7856235 7 7 C7.51512617 11.09157355 7.94367269 15.23589546 5.953125 18.95703125 C3.55501226 21.85592636 1.60351712 23.79811835 -2.171875 24.2734375 C-9.98876369 24.58137554 -9.98876369 24.58137554 -13.5625 21.625 C-17.3057723 17.59378368 -17.39037018 14.90519941 -17.359375 9.55078125 C-16.78039966 5.44131496 -15.00085071 3.78650423 -12 1 C-8.27533151 -0.86233425 -4.05504687 -0.57130829 0 0 Z " fill="#000000" transform="translate(453,180)"/>
</svg>
