<?xml version="1.0" encoding="UTF-8"?>
<svg version="1.1" xmlns="http://www.w3.org/2000/svg" width="512" height="512">
<path d="M0 0 C1.28179453 -0.01303874 2.56358906 -0.02607747 3.88422585 -0.03951132 C5.30454482 -0.02870129 6.72486025 -0.01741802 8.14517212 -0.00571251 C9.65561043 -0.01147327 11.16604174 -0.01941409 12.67645836 -0.02934873 C16.82867492 -0.05025195 20.98031807 -0.03989139 25.13253689 -0.02441764 C29.60979059 -0.01312216 34.08694448 -0.03055786 38.56417847 -0.04431725 C47.33570503 -0.0665735 56.10701791 -0.06173785 64.87855291 -0.04725404 C72.0060791 -0.03597118 79.13354533 -0.03442677 86.26107788 -0.03987312 C87.27473903 -0.04063929 88.28840018 -0.04140545 89.33277833 -0.04219484 C91.39188403 -0.04379343 93.4509897 -0.0454145 95.51009536 -0.04705779 C114.82734297 -0.06132229 134.14447203 -0.04491157 153.4617002 -0.01805596 C170.04391299 0.00428344 186.62595077 0.00040351 203.2081604 -0.02264977 C222.45534205 -0.04939539 241.70241975 -0.05994893 260.94961739 -0.04458845 C263.00123213 -0.04299567 265.05284689 -0.04142381 267.10446167 -0.03987312 C268.11394753 -0.03910175 269.12343339 -0.03833037 270.16350973 -0.03753562 C277.28411117 -0.0332149 284.40464679 -0.04051316 291.52523804 -0.05227089 C300.20056693 -0.06628068 308.87566956 -0.06252802 317.55097246 -0.03586717 C321.97898597 -0.02270844 326.40662199 -0.01761141 330.83463287 -0.03411293 C334.88615243 -0.04898328 338.93694366 -0.04087327 342.98839688 -0.01422517 C344.45601786 -0.00862771 345.92370003 -0.01150903 347.39128184 -0.02360411 C349.38265895 -0.03876046 351.3742078 -0.02025633 353.36553955 0 C354.47275171 0.00081176 355.57996387 0.00162352 356.72072792 0.00245988 C360.70632017 0.84578128 362.20574186 2.45151456 364.68276978 5.6292057 C365.30376226 7.89808971 365.30376226 7.89808971 365.29800892 10.25810909 C365.30796416 11.163297 365.3179194 12.0684849 365.32817632 13.00110275 C365.31361211 13.98651225 365.29904791 14.97192176 365.28404236 15.98719215 C365.28831448 17.04093723 365.29258661 18.09468232 365.29698819 19.18035907 C365.3052344 22.71687947 365.27770447 26.25221811 365.25039673 29.78862953 C365.24898662 32.32135426 365.2497775 34.85408104 365.25260925 37.38680458 C365.25374842 42.8424258 365.23955295 48.2976654 365.21142006 53.75320816 C365.17077167 61.64090132 365.15776151 69.52844993 365.1514801 77.41623648 C365.14053899 90.21378933 365.10726984 103.01118276 365.05996704 115.80864906 C365.01406666 128.23963054 364.97867712 140.6705687 364.95742798 153.10161781 C364.95611436 153.86796206 364.95480074 154.63430631 364.95344732 155.4238731 C364.9469221 159.26842597 364.94060357 163.11297915 364.9343878 166.95753253 C364.8825605 198.84820717 364.79412842 230.73868166 364.68276978 262.6292057 C366.12756798 261.71076731 367.56655696 260.7831868 369.00308228 259.85186195 C369.80504028 259.33631752 370.60699829 258.82077309 371.43325806 258.28960609 C378.11530417 253.35748154 379.46376809 246.42808447 380.81167603 238.5823307 C381.81510778 235.18056208 382.90844922 233.79775719 385.68276978 231.6292057 C389.14861516 230.76274436 391.56716616 230.26738832 394.99526978 231.3792057 C398.92633548 234.29110623 399.23539342 237.89928574 400.05776978 242.4417057 C401.81171843 250.92348726 404.61262912 255.49988797 411.68276978 260.6292057 C415.72141975 262.72619704 419.42510046 263.80952562 423.87026978 264.5667057 C426.90818311 265.1446953 428.64507104 265.60586839 431.30776978 267.2542057 C433.30864765 270.71026748 433.50536188 273.80567574 432.68276978 277.6292057 C430.57355737 281.14455972 428.72634847 282.35745501 424.77261353 283.3870182 C423.11939087 283.72346352 423.11939087 283.72346352 421.43276978 284.0667057 C414.23415963 285.5487725 408.50455692 287.65176201 404.12808228 293.82061195 C401.15015643 299.30951078 399.70910367 304.95197746 398.55386353 311.06279945 C397.50129979 314.16385045 396.53189655 315.07326305 393.68276978 316.6292057 C391.68276978 317.06279945 391.68276978 317.06279945 389.68276978 317.0667057 C389.02276978 317.08604164 388.36276978 317.10537758 387.68276978 317.12529945 C384.64884401 316.37274365 383.56482778 315.11225703 381.68276978 312.6292057 C380.96822511 310.03472806 380.41235219 307.57512699 379.93276978 304.9417057 C378.35048601 297.53815973 375.73674916 292.47711888 369.68276978 287.6292057 C368.35893715 286.9438668 367.02670831 286.2742262 365.68276978 285.6292057 C365.68222501 286.24304461 365.68168024 286.85688353 365.68111897 287.48932362 C365.66614812 302.42915246 365.62368932 317.36866925 365.55067921 332.30831623 C365.51603388 339.53307085 365.49067432 346.75763477 365.48721313 353.98247719 C365.48417256 360.28007795 365.46367014 366.57733904 365.4222452 372.87480861 C365.40092101 376.20905763 365.39091538 379.54271639 365.39661598 382.87704468 C365.40150003 386.60054341 365.37552319 390.32262857 365.3421936 394.04595375 C365.35513206 395.70212212 365.35513206 395.70212212 365.36833191 397.39174843 C365.35304443 398.40832024 365.33775696 399.42489204 365.32200623 400.47226906 C365.31924085 401.35258136 365.31647547 402.23289366 365.31362629 403.13988209 C364.39124754 406.77953573 362.53599256 408.24727928 359.68276978 410.6292057 C356.72072792 411.25595152 356.72072792 411.25595152 353.36553955 411.25841141 C351.44284776 411.27796951 351.44284776 411.27796951 349.48131371 411.29792273 C348.06099474 411.2871127 346.6406793 411.27582942 345.22036743 411.26412392 C343.70992912 411.26988468 342.19949782 411.2778255 340.68908119 411.28776014 C336.53686463 411.30866336 332.38522148 411.29830279 328.23300266 411.28282905 C323.75574896 411.27153357 319.27859507 411.28896927 314.80136108 411.30272865 C306.02983452 411.32498491 297.25852164 411.32014926 288.48698664 411.30566545 C281.35946045 411.29438259 274.23199422 411.29283817 267.10446167 411.29828453 C265.58396995 411.29943378 265.58396995 411.29943378 264.03276122 411.30060624 C261.97365552 411.30220484 259.91454985 411.3038259 257.85544419 411.3054692 C238.53819658 411.3197337 219.22106752 411.30332298 199.90383935 411.27646737 C183.32162656 411.25412796 166.73958878 411.2580079 150.15737915 411.28106117 C130.9101975 411.3078068 111.6631198 411.31836034 92.41592216 411.30299985 C90.36430742 411.30140707 88.31269266 411.29983522 86.26107788 411.29828453 C85.25159202 411.29751315 84.24210616 411.29674178 83.20202982 411.29594702 C76.08142838 411.29162631 68.96089277 411.29892457 61.84030151 411.3106823 C53.16497262 411.32469209 44.48986999 411.32093942 35.81456709 411.29427858 C31.38655358 411.28111985 26.95891756 411.27602282 22.53090668 411.29252434 C18.47938712 411.30739469 14.42859589 411.29928468 10.37714267 411.27263658 C8.90952169 411.26703912 7.44183952 411.26992044 5.97425771 411.28201552 C3.98288061 411.29717187 1.99133176 411.27866774 0 411.25841141 C-1.10721216 411.25759965 -2.21442432 411.25678788 -3.35518837 411.25595152 C-7.33689999 410.41345124 -8.83758529 408.79864914 -11.31723022 405.6292057 C-11.94463474 403.41802996 -11.94463474 403.41802996 -11.94808674 401.14085865 C-11.96152538 400.2670213 -11.97496401 399.39318396 -11.98880988 398.49286669 C-11.97813662 397.54247572 -11.96746337 396.59208475 -11.95646667 395.61289406 C-11.96482235 394.59590095 -11.97317803 393.57890784 -11.98178691 392.53109676 C-12.00375601 389.11903524 -11.99009708 385.70804595 -11.97665405 382.29595375 C-11.98510468 379.85188923 -11.99574759 377.40783144 -12.00842285 374.96378517 C-12.03078327 369.69974594 -12.03787277 364.4360245 -12.03107643 359.17196655 C-12.02127657 351.56111171 -12.03901063 343.95051649 -12.06344374 336.33970366 C-12.10233874 323.99145577 -12.1189966 311.64328213 -12.12167358 299.29497719 C-12.12432149 287.3004723 -12.13744009 275.30605417 -12.16464233 263.31157875 C-12.1671524 262.20238682 -12.1671524 262.20238682 -12.16971318 261.07078698 C-12.17817271 257.36109007 -12.18683811 253.65139367 -12.19560587 249.94169748 C-12.26806553 219.1708764 -12.30406747 188.400112 -12.31723022 157.6292057 C-19.16865502 162.12378674 -24.37478391 166.37380888 -26.31723022 174.6292057 C-26.45387085 175.44002602 -26.59051147 176.25084633 -26.73129272 177.08623695 C-27.92500635 183.9956133 -27.92500635 183.9956133 -29.94223022 187.2542057 C-33.398292 189.25508357 -36.49370027 189.45179781 -40.31723022 188.6292057 C-43.83258424 186.51999329 -45.04547953 184.6727844 -46.07504272 180.71904945 C-46.41148804 179.0658268 -46.41148804 179.0658268 -46.75473022 177.3792057 C-48.22039729 170.22092016 -50.44827786 164.73999973 -56.25082397 160.0745182 C-61.64076952 156.73176298 -67.29553017 155.56318503 -73.49691772 154.50029945 C-76.79882388 153.48045863 -77.71602888 152.65126832 -79.31723022 149.6292057 C-79.75082397 147.6292057 -79.75082397 147.6292057 -79.75473022 145.6292057 C-79.77406616 144.9692057 -79.7934021 144.3092057 -79.81332397 143.6292057 C-79.07329652 140.64578794 -77.72359076 139.50258721 -75.31723022 137.6292057 C-72.36410522 136.75811195 -72.36410522 136.75811195 -69.06723022 136.1917057 C-60.2315893 134.34929627 -54.53737781 130.99882583 -49.31723022 123.6292057 C-47.69587917 120.11040396 -46.96382312 116.89349443 -46.44223022 113.0667057 C-45.86096702 109.7699228 -45.45433307 107.8424768 -43.62973022 105.0042057 C-40.43591888 103.10518274 -38.02600146 102.69427187 -34.31723022 102.6292057 C-31.22676983 103.86538986 -29.79209296 104.80444411 -28.12973022 107.6917057 C-27.41131181 110.28906459 -26.9522501 112.78913333 -26.50473022 115.4417057 C-25.29535502 121.60768687 -23.2089225 126.47710309 -18.06161499 130.30791664 C-16.85976562 131.07797035 -16.85976562 131.07797035 -15.63363647 131.8635807 C-14.82483032 132.38661781 -14.01602417 132.90965492 -13.18270874 133.44854164 C-12.56710083 133.83816078 -11.95149292 134.22777992 -11.31723022 134.6292057 C-11.32183919 133.9689832 -11.32644815 133.3087607 -11.33119678 132.62853146 C-11.44162852 116.5623162 -11.52436344 100.49623299 -11.57629108 84.42973232 C-11.60207056 76.6600659 -11.63721579 68.89065285 -11.69442749 61.12114906 C-11.74427079 54.34906412 -11.77652312 47.57716267 -11.7876727 40.80489939 C-11.79419006 37.21907853 -11.80950111 33.63378261 -11.84588051 30.04813004 C-11.8861687 26.04472656 -11.8871791 22.04223506 -11.88485718 18.03862953 C-11.90283356 16.85036064 -11.92080994 15.66209175 -11.93933105 14.43781471 C-11.92902107 12.79936592 -11.92902107 12.79936592 -11.91850281 11.12781715 C-11.92311177 10.18113576 -11.92772074 9.23445436 -11.93246937 8.25908566 C-10.46308325 1.97809861 -5.99207457 0.00439314 0 0 Z M6.68276978 18.6292057 C6.68276978 36.4492057 6.68276978 54.2692057 6.68276978 72.6292057 C7.01276978 71.9692057 7.34276978 71.3092057 7.68276978 70.6292057 C9.98160032 70.1427435 12.29855709 69.74103106 14.62026978 69.3792057 C22.52138918 67.93931276 29.04759023 65.75938843 34.51870728 59.5432682 C39.25918027 52.5828664 40.4421943 44.79088644 41.68276978 36.6292057 C44.35920934 35.73705918 45.93661355 35.4938036 48.68276978 35.5042057 C49.36339478 35.50162758 50.04401978 35.49904945 50.74526978 35.4963932 C52.68276978 35.6292057 52.68276978 35.6292057 55.68276978 36.6292057 C55.8297229 37.59600258 55.97667603 38.56279945 56.12808228 39.5588932 C57.65346433 48.75260396 59.46239995 57.03449818 66.76870728 63.4651432 C73.72910908 68.2056162 81.52108904 69.38863023 89.68276978 70.6292057 C90.5749163 73.30564527 90.81817188 74.88304948 90.80776978 77.6292057 C90.81163696 78.6501432 90.81163696 78.6501432 90.81558228 79.6917057 C90.68276978 81.6292057 90.68276978 81.6292057 89.68276978 84.6292057 C88.7159729 84.77615883 87.74917603 84.92311195 86.75308228 85.0745182 C77.55937152 86.59990026 69.2774773 88.40883588 62.84683228 95.7151432 C58.10635928 102.67554501 56.92334525 110.46752497 55.68276978 118.6292057 C53.00633021 119.52135223 51.428926 119.76460781 48.68276978 119.7542057 C47.66183228 119.75807289 47.66183228 119.75807289 46.62026978 119.7620182 C44.68276978 119.6292057 44.68276978 119.6292057 41.68276978 118.6292057 C41.53581665 117.66240883 41.38886353 116.69561195 41.23745728 115.6995182 C39.71207522 106.50580745 37.9031396 98.22391323 30.59683228 91.7932682 C24.40104765 87.57354778 17.9778381 86.4024631 10.71011353 85.2698307 C9.71109009 85.05842445 8.71206665 84.8470182 7.68276978 84.6292057 C7.35276978 83.9692057 7.02276978 83.3092057 6.68276978 82.6292057 C6.68276978 184.9292057 6.68276978 287.2292057 6.68276978 392.6292057 C87.50159806 399.6560271 87.50159806 399.6560271 118.26358032 381.18633461 C122.80172575 376.60610284 126.82639386 372.39916879 130.81883979 367.45393229 C133.87836507 363.78707102 137.22541324 360.396585 140.5408783 356.96254921 C146.70872379 350.4960524 152.61367049 343.84237652 158.44151479 337.06946504 C165.75673688 328.59385482 173.39063848 320.42259655 181.0284729 312.2385807 C188.82070645 303.87350727 196.58056436 295.49080487 204.13996887 286.91402626 C205.28734743 285.61809817 206.43474184 284.32218411 207.58215332 283.02628517 C209.6977929 280.63505524 211.79352059 278.22831476 213.87892151 275.810709 C214.81899164 274.74495201 215.75968849 273.67974736 216.7011261 272.61519814 C217.49957286 271.69524874 218.29801962 270.77529934 219.12066174 269.82747269 C222.21173883 267.17535474 224.70841663 266.39161579 228.68276978 265.6292057 C232.58526432 266.58314881 233.412171 267.22330753 235.68276978 270.6292057 C236.37026978 273.6917057 236.37026978 273.6917057 235.68276978 277.6292057 C234.01843357 279.82624149 234.01843357 279.82624149 231.80033875 282.20865822 C230.97961946 283.09140356 230.15890018 283.9741489 229.31331062 284.8836441 C224.97247605 289.41428225 220.56315618 293.87132291 216.11416626 298.29546547 C215.08799652 299.31971039 214.06205838 300.3441874 213.03633118 301.3688755 C210.84926946 303.55280609 208.66067243 305.73518143 206.47082329 307.91631699 C203.01020113 311.36330511 199.55349691 314.81420482 196.09733582 318.26566505 C188.77462747 325.57733438 181.4476515 332.88472027 174.12026978 340.1917057 C166.17678365 348.11314858 158.23405946 356.03534738 150.2961641 363.96239322 C146.85706591 367.39650068 143.41554309 370.82815425 139.97216117 374.25796616 C137.84118198 376.38151888 135.7122472 378.50711192 133.58387947 380.63328171 C132.59302953 381.62225066 131.60131122 382.61035043 130.60868835 383.5975399 C129.2603328 384.93874238 127.91528859 386.28327148 126.57044983 387.62800026 C125.43758624 388.75753294 125.43758624 388.75753294 124.28183651 389.90988445 C122.56926394 391.35991503 122.56926394 391.35991503 122.68276978 392.6292057 C138.33611842 394.75462907 138.33611842 394.75462907 152.77624512 389.76351357 C157.71034123 385.77101693 161.96106943 381.14607214 166.24136353 376.47686195 C167.85428053 374.81464929 169.47297899 373.15802924 171.09709167 371.50675392 C175.31825164 367.18539392 179.45926466 362.79490476 183.58639526 358.38390541 C187.81980981 353.88597256 192.12356179 349.45648502 196.42300415 345.02178383 C201.24236403 340.04347207 206.05329964 335.05858353 210.81495667 330.02497292 C211.89314667 328.88564812 211.89314667 328.88564812 212.99311829 327.72330666 C214.3364347 326.30116944 215.67736609 324.87677427 217.01550293 323.44976234 C217.60477066 322.82574028 218.19403839 322.20171822 218.80116272 321.55878639 C219.31255012 321.01400674 219.82393751 320.46922709 220.3508215 319.90793896 C223.1364848 317.23357062 225.94562803 317.28739404 229.70620728 317.3557682 C231.68276978 317.6292057 231.68276978 317.6292057 234.18276978 319.1917057 C236.3634864 322.73537023 236.436087 324.52020264 235.68276978 328.6292057 C230.80534884 335.69088799 223.83803203 341.59255114 217.75688362 347.63025665 C215.93502691 349.43921566 214.11643061 351.2513981 212.29859924 353.06440163 C208.4503131 356.90134355 204.59806733 360.73429459 200.74526978 364.5667057 C196.25444202 369.03393552 191.76524989 373.50278442 187.28021049 377.97582626 C185.48511039 379.7644273 183.68703712 381.55000294 181.88883972 383.33548927 C180.79925184 384.4214482 179.7098021 385.50754577 178.62051392 386.59380531 C177.86557396 387.34099579 177.86557396 387.34099579 177.09538269 388.10328102 C175.9387155 389.25976808 174.80763833 390.44176642 173.68276978 391.6292057 C173.68276978 391.9592057 173.68276978 392.2892057 173.68276978 392.6292057 C230.77276978 392.6292057 287.86276978 392.6292057 346.68276978 392.6292057 C346.68276978 377.7792057 346.68276978 362.9292057 346.68276978 347.6292057 C344.37276978 348.6192057 342.06276978 349.6092057 339.68276978 350.6292057 C337.12808228 351.14873695 337.12808228 351.14873695 334.80776978 351.4417057 C327.72570436 352.75679243 322.09993382 356.38665166 317.74526978 362.1292057 C315.32724728 365.93013833 313.96057995 369.63771256 313.33511353 374.1213932 C312.29030916 381.12056808 312.29030916 381.12056808 308.99526978 383.8792057 C304.85282977 384.81711665 302.57064449 384.27407578 298.68276978 382.6292057 C296.61366471 379.52554811 296.30551125 378.04271294 295.80776978 374.4417057 C294.43337022 366.48907314 291.97055651 360.91311631 285.52651978 355.87529945 C281.0873556 352.87510163 276.70255918 351.58503834 271.49526978 350.6917057 C268.40916503 350.10924453 266.73741779 349.66433657 264.05776978 347.9417057 C262.08434257 344.62275994 262.14143555 342.41854526 262.68276978 338.6292057 C265.65779816 334.76875221 268.21958153 334.00143591 272.93276978 333.1917057 C281.8653189 331.31116905 287.29413027 328.15406898 292.50308228 320.59404945 C294.52999552 317.21809792 295.48933247 314.02942803 296.02651978 310.14092445 C297.08129301 303.13276764 297.08129301 303.13276764 300.37026978 300.3792057 C304.51270978 299.44129476 306.79489506 299.98433563 310.68276978 301.6292057 C312.75187484 304.7328633 313.0600283 306.21569847 313.55776978 309.8167057 C314.93258443 317.77174013 317.39647799 323.35193153 323.84683228 328.3870182 C329.45025026 332.17826697 335.60069988 333.46199742 342.10855103 334.9807682 C344.68276978 335.6292057 344.68276978 335.6292057 346.68276978 336.6292057 C346.68276978 231.6892057 346.68276978 126.7492057 346.68276978 18.6292057 C334.90800159 17.58535976 334.90800159 17.58535976 330.14214993 20.57579041 C329.23753552 21.49498575 328.33292112 22.4141811 327.40089417 23.36123085 C326.62280021 24.12478022 326.62280021 24.12478022 325.82898718 24.90375483 C324.11884819 26.5973175 322.4591482 28.33262837 320.79580688 30.0720768 C319.57168393 31.30314965 318.344661 32.53134461 317.11499023 33.75687599 C313.79883355 37.07782653 310.524084 40.43703909 307.25523829 43.80447912 C303.82324164 47.32548293 300.35329332 50.80866774 296.88700867 54.2958622 C290.33194531 60.9015765 283.80987547 67.53885807 277.29986531 74.18894637 C267.7365138 83.95503645 258.12315589 93.67170882 248.5110178 103.3897438 C247.09303073 104.823515 245.67506656 106.25730882 244.25712585 107.69112587 C243.21881531 108.74091368 243.21881531 108.74091368 242.15952879 109.81190932 C238.04486012 113.97421904 233.93932232 118.14528146 229.84179771 122.32446837 C227.29634938 124.91983734 224.74720481 127.5115573 222.19756699 130.10280991 C221.01537367 131.30634049 219.83499496 132.51165657 218.6565609 133.71886826 C217.04955331 135.36489048 215.43643905 137.00468893 213.8217926 138.64321327 C212.92057143 139.56316267 212.01935026 140.48311207 211.09081936 141.43093872 C208.94765687 143.38739484 207.39583498 144.66373352 204.68276978 145.6292057 C201.26760429 145.44946015 198.6881955 145.29948952 195.80776978 143.3792057 C194.28378052 141.00855575 193.81456997 139.46290983 193.68276978 136.6292057 C195.56446623 132.16791531 197.84035552 129.10056143 201.25752258 125.70041847 C201.71336017 125.24272318 202.16919776 124.78502788 202.6388486 124.31346303 C204.15647808 122.79324953 205.684524 121.28397454 207.21279907 119.77446938 C208.30747574 118.68227783 209.4014834 117.58941542 210.49487305 116.49593544 C213.45703237 113.53717925 216.42826054 110.58768332 219.40108085 107.63964438 C222.50974178 104.55349179 225.60948748 101.45841247 228.71006775 98.36414528 C234.57969374 92.50899201 240.45650235 86.66110738 246.33629495 80.81616527 C256.88063019 70.3338518 267.41269236 59.83921305 277.94212276 49.34193021 C281.63972819 45.65618756 285.34048361 41.97364449 289.04386365 38.29370439 C291.33971893 36.01162548 293.63362666 33.72759615 295.92708969 31.44311333 C296.99533161 30.37996192 298.06444763 29.317688 299.1344738 28.2563324 C300.58822356 26.81417947 302.03869728 25.36872634 303.4889679 23.92307472 C304.71095147 22.70831852 304.71095147 22.70831852 305.95762157 21.4690218 C307.79677124 19.92797909 307.79677124 19.92797909 307.68276978 18.6292057 C292.06993692 16.5183506 292.06993692 16.5183506 277.65557861 21.44234657 C272.81845518 25.35755215 268.66680754 29.90294081 264.48355103 34.49248695 C262.90280732 36.12763392 261.31610351 37.75703772 259.72383118 39.38096046 C255.58332081 43.63291695 251.52225535 47.95299563 247.4758606 52.29436684 C242.53287371 57.56962675 237.50154087 62.7604433 232.48166943 67.96239185 C228.58154076 72.00675664 224.69622874 76.06236364 220.8513031 80.15931129 C220.14366318 80.90815086 219.43602325 81.65699043 218.7069397 82.42852211 C217.39263059 83.82043055 216.08456004 85.21826937 214.78425598 86.62327003 C211.37857857 90.21484036 208.40519174 92.83078276 203.68276978 94.6292057 C200.47514742 94.50341659 198.5177124 94.2050282 195.87026978 92.3792057 C194.30134995 90.06711333 193.88207032 88.41941334 193.68276978 85.6292057 C195.00227484 80.80966684 198.03361792 77.87739019 201.50942993 74.47783852 C202.10468979 73.88374687 202.69994965 73.28965523 203.31324768 72.67756081 C205.27589096 70.72208651 207.24882539 68.77734309 209.22183228 66.8323307 C210.58733372 65.47496623 211.95210055 64.11686237 213.31616211 62.75805092 C216.90348995 59.18782559 220.49929857 55.62627097 224.09738159 52.06688881 C229.86606954 46.35745675 235.62203212 40.63520106 241.3775444 34.91249275 C243.39356418 32.91048917 245.41331851 30.91231354 247.43365479 28.91466713 C248.66081559 27.69752316 249.88790108 26.48030326 251.11489868 25.26299477 C251.96577812 24.42457794 251.96577812 24.42457794 252.83384705 23.5692234 C254.13586375 22.27476006 255.4124245 20.95476435 256.68276978 19.6292057 C256.68276978 19.2992057 256.68276978 18.9692057 256.68276978 18.6292057 C174.18276978 18.6292057 91.68276978 18.6292057 6.68276978 18.6292057 Z M46.17495728 71.9417057 C45.6412854 72.4985807 45.10761353 73.0554557 44.55776978 73.6292057 C44.01894165 74.1860807 43.48011353 74.7429557 42.92495728 75.3167057 C42.5150354 75.7498307 42.10511353 76.1829557 41.68276978 76.6292057 C43.12530635 79.99512437 45.01541705 82.13967649 47.68276978 84.6292057 C51.04868844 83.18666913 53.19324056 81.29655843 55.68276978 78.6292057 C54.24199931 75.26740796 52.43526957 73.03764302 49.68276978 70.6292057 C47.60101966 70.41035049 47.60101966 70.41035049 46.17495728 71.9417057 Z M-37.31723022 138.6292057 C-39.62723022 140.9392057 -41.93723022 143.2492057 -44.31723022 145.6292057 C-43.55410522 146.3923307 -42.79098022 147.1554557 -42.00473022 147.9417057 C-40.10889689 149.83753904 -38.21306356 151.73337237 -36.31723022 153.6292057 C-34.77556381 152.25435038 -34.77556381 152.25435038 -33.31723022 150.6292057 C-33.31723022 149.9692057 -33.31723022 149.3092057 -33.31723022 148.6292057 C-31.99723022 147.9692057 -30.67723022 147.3092057 -29.31723022 146.6292057 C-30.27144831 145.47994305 -31.23075067 144.33490029 -32.19223022 143.1917057 C-32.7259021 142.55361977 -33.25957397 141.91553383 -33.80941772 141.25811195 C-35.23950593 139.52115566 -35.23950593 139.52115566 -37.31723022 138.6292057 Z M388.05386353 268.1604557 C387.41577759 268.8101432 386.77769165 269.4598307 386.12026978 270.1292057 C385.47960571 270.7788932 384.83894165 271.4285807 384.17886353 272.0979557 C383.68515259 272.6032682 383.19144165 273.1085807 382.68276978 273.6292057 C383.67276978 275.1142057 383.67276978 275.1142057 384.68276978 276.6292057 C385.34276978 276.6292057 386.00276978 276.6292057 386.68276978 276.6292057 C386.97151978 277.2685807 387.26026978 277.9079557 387.55776978 278.5667057 C388.51100428 280.7812665 388.51100428 280.7812665 390.68276978 281.6292057 C391.46651978 280.6804557 392.25026978 279.7317057 393.05776978 278.7542057 C394.54641882 276.95215686 396.02655825 275.28541723 397.68276978 273.6292057 C396.53997787 272.45955968 395.39345263 271.29356015 394.24526978 270.1292057 C393.28814087 269.15467445 393.28814087 269.15467445 392.31167603 268.1604557 C390.18276978 266.1052271 390.18276978 266.1052271 388.05386353 268.1604557 Z M300.05776978 338.6292057 C299.11030884 339.4645182 299.11030884 339.4645182 298.14370728 340.3167057 C297.6615979 340.7498307 297.17948853 341.1829557 296.68276978 341.6292057 C297.85839478 342.7738932 297.85839478 342.7738932 299.05776978 343.9417057 C301.68276978 346.6292057 301.68276978 346.6292057 303.68276978 349.6292057 C304.34276978 349.6292057 305.00276978 349.6292057 305.68276978 349.6292057 C306.9670784 348.15225079 308.24857686 346.67114433 309.46401978 345.1370182 C310.68276978 343.6292057 310.68276978 343.6292057 312.68276978 341.6292057 C311.56307118 340.62327327 310.43682857 339.62462081 309.30776978 338.6292057 C308.6812854 338.0723307 308.05480103 337.5154557 307.40933228 336.9417057 C304.12128224 334.44219256 302.7846578 336.20530523 300.05776978 338.6292057 Z " fill="#000000" transform="translate(79.31723022460938,50.37079429626465)"/>
</svg>
