<?xml version="1.0" encoding="UTF-8"?>
<svg version="1.1" xmlns="http://www.w3.org/2000/svg" width="512" height="512">
<path d="M0 0 C3 1.22265625 3 1.22265625 6 3.0625 C6.5784668 3.41119141 7.15693359 3.75988281 7.75292969 4.11914062 C9.84845321 5.3924511 11.92399237 6.69511924 14 8 C15.77578744 9.10327388 17.55184745 10.20610912 19.328125 11.30859375 C23.39721855 13.84116636 27.45819693 16.38628579 31.515625 18.9375 C37.98503668 22.99996178 44.48887265 27.00484554 51 31 C59.35631231 36.13050259 67.69098533 41.2932459 76 46.5 C86.54600277 53.10770127 97.13866886 59.63744641 107.7421875 66.15234375 C115.99272156 71.22211636 124.22451306 76.32202498 132.45556641 81.42333984 C136.80276643 84.11708555 141.15147177 86.80839917 145.5 89.5 C147.25000693 90.58332213 149.00000694 91.66665546 150.75 92.75 C151.61625 93.28625 152.4825 93.8225 153.375 94.375 C170 104.66666667 186.625 114.95833333 203.25 125.25 C204.55070435 126.0551001 204.55070435 126.0551001 205.87768555 126.87646484 C207.61896989 127.95453401 209.36002004 129.03298153 211.10083008 130.11181641 C215.60728472 132.90391861 220.11822712 135.68835056 224.63671875 138.4609375 C225.56613281 139.03263672 226.49554688 139.60433594 227.453125 140.19335938 C229.20810619 141.2726728 230.96449742 142.34969873 232.72265625 143.42382812 C248.94079932 153.41119898 248.94079932 153.41119898 252 158 C252.37109375 160.26953125 252.37109375 160.26953125 252.4375 162.8125 C252.47746094 163.64394531 252.51742187 164.47539062 252.55859375 165.33203125 C251.4892466 170.43947254 248.44830479 172.99038291 244.32885742 175.86206055 C241.04422718 177.94559273 237.72072423 179.95451895 234.375 181.9375 C232.11150981 183.30000183 229.84848456 184.66327636 227.5859375 186.02734375 C226.48733398 186.68460449 225.38873047 187.34186523 224.25683594 188.01904297 C220.15859967 190.51177828 216.13859281 193.11616176 212.13134766 195.75219727 C210 197 210 197 208 197 C208 197.66 208 198.32 208 199 C208.71462402 199.26337158 209.42924805 199.52674316 210.16552734 199.7980957 C213.1076644 201.04565304 215.64953959 202.52656152 218.3515625 204.23046875 C219.36863281 204.86919922 220.38570313 205.50792969 221.43359375 206.16601562 C223.01333984 207.16665039 223.01333984 207.16665039 224.625 208.1875 C225.65496094 208.83525391 226.68492187 209.48300781 227.74609375 210.15039062 C229.81308262 211.45168362 231.87722942 212.75750218 233.93847656 214.06787109 C235.97633927 215.35396722 238.0252859 216.62266888 240.08496094 217.87353516 C241.0546582 218.46827637 242.02435547 219.06301758 243.0234375 219.67578125 C243.88630371 220.19696533 244.74916992 220.71814941 245.63818359 221.25512695 C248.9981197 223.73739523 251.61562681 226.32731393 252.56640625 230.46484375 C252.56511719 231.28082031 252.56382812 232.09679687 252.5625 232.9375 C252.58441406 233.75089844 252.60632813 234.56429687 252.62890625 235.40234375 C251.28340172 240.95986245 247.3778141 243.93797409 242.734375 246.82421875 C241.07897635 247.78911778 239.41717582 248.74309562 237.75 249.6875 C235.96456015 250.72514092 234.18073507 251.76556474 232.3984375 252.80859375 C231.50092773 253.33308105 230.60341797 253.85756836 229.67871094 254.39794922 C224.75479627 257.34278408 219.97698517 260.51290252 215.20605469 263.69799805 C210.20624739 267 210.20624739 267 208 267 C208 267.66 208 268.32 208 269 C208.70487549 269.25885986 209.40975098 269.51771973 210.13598633 269.78442383 C213.23474152 271.09963158 215.95776268 272.68451702 218.82421875 274.44921875 C220.49194336 275.47499023 220.49194336 275.47499023 222.19335938 276.52148438 C222.76852295 276.87815186 223.34368652 277.23481934 223.9362793 277.60229492 C225.66204446 278.67172559 227.39217651 279.73377906 229.12304688 280.79492188 C248.70315048 292.88154491 248.70315048 292.88154491 252 298 C252.43359375 300.40234375 252.43359375 300.40234375 252.4375 302.9375 C252.45683594 303.77152344 252.47617187 304.60554688 252.49609375 305.46484375 C251.67150332 309.67869565 249.49686729 311.92851691 246.04125977 314.40209961 C243.57774416 315.98843643 241.08032793 317.50137455 238.5625 319 C236.65089032 320.15990685 234.73943612 321.32006999 232.828125 322.48046875 C231.85423828 323.06747559 230.88035156 323.65448242 229.87695312 324.25927734 C225.49974869 326.90773862 221.15730967 329.61135506 216.8125 332.3125 C210.04694456 336.5050768 203.27056481 340.67978946 196.48901367 344.84643555 C186.97000147 350.69524664 177.46750777 356.56813449 168 362.5 C157.45394965 369.10762619 146.86133192 375.63744593 136.2578125 382.15234375 C128.00727844 387.22211636 119.77548694 392.32202498 111.54443359 397.42333984 C107.19723357 400.11708555 102.84852823 402.80839917 98.5 405.5 C96.74999307 406.58332213 94.99999306 407.66665546 93.25 408.75 C75.75 419.58333333 58.25 430.41666667 40.75 441.25 C39.88238037 441.78713623 39.01476074 442.32427246 38.12084961 442.87768555 C36.38482319 443.95229156 34.6486596 445.02667601 32.91235352 446.10083008 C28.32236185 448.94081458 23.73537363 451.78551105 19.15234375 454.63671875 C18.19585937 455.23097656 17.239375 455.82523437 16.25390625 456.4375 C14.4183919 457.57801377 12.58371407 458.71987524 10.75 459.86328125 C9.51056641 460.63285156 9.51056641 460.63285156 8.24609375 461.41796875 C7.52091553 461.86938232 6.7957373 462.3207959 6.04858398 462.78588867 C1.28269172 465.61043667 -2.37697019 466.712451 -8 466 C-11 464.77734375 -11 464.77734375 -14 462.9375 C-14.5784668 462.58880859 -15.15693359 462.24011719 -15.75292969 461.88085938 C-17.84845321 460.6075489 -19.92399237 459.30488076 -22 458 C-23.77578744 456.89672612 -25.55184745 455.79389088 -27.328125 454.69140625 C-31.39721855 452.15883364 -35.45819693 449.61371421 -39.515625 447.0625 C-45.98503668 443.00003822 -52.48887265 438.99515446 -59 435 C-67.35631231 429.86949741 -75.69098533 424.7067541 -84 419.5 C-94.54600277 412.89229873 -105.13866886 406.36255359 -115.7421875 399.84765625 C-123.99272156 394.77788364 -132.22451306 389.67797502 -140.45556641 384.57666016 C-144.80276643 381.88291445 -149.15147177 379.19160083 -153.5 376.5 C-155.25000693 375.41667787 -157.00000694 374.33334454 -158.75 373.25 C-160.049375 372.445625 -160.049375 372.445625 -161.375 371.625 C-186.3125 356.1875 -186.3125 356.1875 -211.25 340.75 C-212.11713623 340.2132666 -212.98427246 339.6765332 -213.87768555 339.12353516 C-215.61896989 338.04546599 -217.36002004 336.96701847 -219.10083008 335.88818359 C-223.60728472 333.09608139 -228.11822712 330.31164944 -232.63671875 327.5390625 C-233.56613281 326.96736328 -234.49554688 326.39566406 -235.453125 325.80664062 C-237.20810619 324.7273272 -238.96449742 323.65030127 -240.72265625 322.57617188 C-256.94079932 312.58880102 -256.94079932 312.58880102 -260 308 C-260.37109375 305.73046875 -260.37109375 305.73046875 -260.4375 303.1875 C-260.47746094 302.35605469 -260.51742188 301.52460938 -260.55859375 300.66796875 C-259.4892466 295.56052746 -256.44830479 293.00961709 -252.32885742 290.13793945 C-249.04422718 288.05440727 -245.72072423 286.04548105 -242.375 284.0625 C-240.11150981 282.69999817 -237.84848456 281.33672364 -235.5859375 279.97265625 C-234.48733398 279.31539551 -233.38873047 278.65813477 -232.25683594 277.98095703 C-228.15859967 275.48822172 -224.13859281 272.88383824 -220.13134766 270.24780273 C-218 269 -218 269 -216 269 C-216 268.34 -216 267.68 -216 267 C-217.07193604 266.60494263 -217.07193604 266.60494263 -218.16552734 266.2019043 C-221.1076644 264.95434696 -223.64953959 263.47343848 -226.3515625 261.76953125 C-227.36863281 261.13080078 -228.38570312 260.49207031 -229.43359375 259.83398438 C-230.48675781 259.16689453 -231.53992188 258.49980469 -232.625 257.8125 C-233.65496094 257.16474609 -234.68492187 256.51699219 -235.74609375 255.84960938 C-237.81308262 254.54831638 -239.87722942 253.24249782 -241.93847656 251.93212891 C-243.97633927 250.64603278 -246.0252859 249.37733112 -248.08496094 248.12646484 C-249.0546582 247.53172363 -250.02435547 246.93698242 -251.0234375 246.32421875 C-252.31773682 245.54244263 -252.31773682 245.54244263 -253.63818359 244.74487305 C-256.9981197 242.26260477 -259.61562681 239.67268607 -260.56640625 235.53515625 C-260.56447266 234.31119141 -260.56447266 234.31119141 -260.5625 233.0625 C-260.59537109 231.84240234 -260.59537109 231.84240234 -260.62890625 230.59765625 C-259.28340172 225.04013755 -255.3778141 222.06202591 -250.734375 219.17578125 C-249.07897635 218.21088222 -247.41717582 217.25690438 -245.75 216.3125 C-243.96456015 215.27485908 -242.18073507 214.23443526 -240.3984375 213.19140625 C-239.50092773 212.66691895 -238.60341797 212.14243164 -237.67871094 211.60205078 C-232.75479627 208.65721592 -227.97698517 205.48709748 -223.20605469 202.30200195 C-218.20624739 199 -218.20624739 199 -216 199 C-216 198.34 -216 197.68 -216 197 C-216.70487549 196.74114014 -217.40975098 196.48228027 -218.13598633 196.21557617 C-221.23474152 194.90036842 -223.95776268 193.31548298 -226.82421875 191.55078125 C-227.93603516 190.86693359 -229.04785156 190.18308594 -230.19335938 189.47851562 C-230.76852295 189.12184814 -231.34368652 188.76518066 -231.9362793 188.39770508 C-233.66204446 187.32827441 -235.39217651 186.26622094 -237.12304688 185.20507812 C-256.70315048 173.11845509 -256.70315048 173.11845509 -260 168 C-260.43359375 165.59765625 -260.43359375 165.59765625 -260.4375 163.0625 C-260.46650391 161.81146484 -260.46650391 161.81146484 -260.49609375 160.53515625 C-259.6610499 156.2678849 -256.9827743 153.71845132 -253.54003906 151.20166016 C-252.62448242 150.65300293 -251.70892578 150.1043457 -250.765625 149.5390625 C-249.21101562 148.59643555 -249.21101562 148.59643555 -247.625 147.63476562 C-246.51125 146.97154297 -245.3975 146.30832031 -244.25 145.625 C-243.07746257 144.91711171 -241.90559753 144.2081086 -240.734375 143.49804688 C-238.93048385 142.40452784 -237.12624801 141.31164052 -235.31994629 140.22210693 C-229.5053053 136.71367749 -223.74960292 133.1138986 -218 129.5 C-207.45499954 122.89071737 -196.86131455 116.3625434 -186.2578125 109.84765625 C-178.00727844 104.77788364 -169.77548694 99.67797502 -161.54443359 94.57666016 C-157.19723357 91.88291445 -152.84852823 89.19160083 -148.5 86.5 C-146.74999307 85.41667787 -144.99999306 84.33334454 -143.25 83.25 C-111.75 63.75 -80.25 44.25 -48.75 24.75 C-47.44857056 23.94429565 -47.44857056 23.94429565 -46.12084961 23.12231445 C-44.38482319 22.04770844 -42.6486596 20.97332399 -40.91235352 19.89916992 C-36.32236185 17.05918542 -31.73537363 14.21448895 -27.15234375 11.36328125 C-25.71761719 10.47189453 -25.71761719 10.47189453 -24.25390625 9.5625 C-22.4183919 8.42198623 -20.58371407 7.28012476 -18.75 6.13671875 C-17.51056641 5.36714844 -17.51056641 5.36714844 -16.24609375 4.58203125 C-15.52091553 4.13061768 -14.7957373 3.6792041 -14.04858398 3.21411133 C-9.28269172 0.38956333 -5.62302981 -0.712451 0 0 Z M-10.7265625 29.71875 C-12.13071411 30.61037842 -12.13071411 30.61037842 -13.56323242 31.52001953 C-15.07880737 32.50010986 -15.07880737 32.50010986 -16.625 33.5 C-18.80014797 34.88380842 -20.97595192 36.26658619 -23.15234375 37.6484375 C-23.71401749 38.00662567 -24.27569122 38.36481384 -24.85438538 38.7338562 C-30.9222745 42.60107426 -37.05275798 46.36493781 -43.1875 50.125 C-45.37256261 51.46717645 -47.55746037 52.80962129 -49.7421875 54.15234375 C-50.7950293 54.79929199 -51.84787109 55.44624023 -52.93261719 56.11279297 C-60.11716396 60.5330848 -67.28551242 64.97959474 -74.45556641 69.42333984 C-78.80276643 72.11708555 -83.15147177 74.80839917 -87.5 77.5 C-89.25000693 78.58332213 -91.00000694 79.66665546 -92.75 80.75 C-166.25 126.25 -166.25 126.25 -168.87475586 127.87475586 C-170.62568066 128.95872372 -172.37649438 130.04287102 -174.12719727 131.12719727 C-178.48715721 133.82730073 -182.84896898 136.52431309 -187.21484375 139.21484375 C-199.88369993 147.02862609 -212.46183981 154.9782641 -225 163 C-220.61479484 166.76381982 -215.83821812 169.58516977 -210.875 172.5 C-204.14783547 176.49253486 -197.4736176 180.54834667 -190.875 184.75 C-180.03982321 191.6416764 -169.09049317 198.34509042 -158.14794922 205.06445312 C-153.48858042 207.92931088 -148.83713203 210.80687399 -144.1875 213.6875 C-142.91737061 214.47435181 -142.91737061 214.47435181 -141.62158203 215.27709961 C-139.92914049 216.32575157 -138.23675727 217.37449767 -136.54443359 218.42333984 C-132.19723357 221.11708555 -127.84852823 223.80839917 -123.5 226.5 C-121.74999307 227.58332213 -119.99999306 228.66665546 -118.25 229.75 C-116.950625 230.554375 -116.950625 230.554375 -115.625 231.375 C-44.75 275.25 -44.75 275.25 -42.12109375 276.87768555 C-40.38443408 277.95258342 -38.64745873 279.02697145 -36.91015625 280.10083008 C-32.32822791 282.93396039 -27.75334935 285.77773608 -23.1875 288.63671875 C-22.23552734 289.23097656 -21.28355469 289.82523437 -20.30273438 290.4375 C-18.47908238 291.57617052 -16.65735883 292.71793736 -14.83789062 293.86328125 C-14.01482422 294.37632812 -13.19175781 294.889375 -12.34375 295.41796875 C-11.62380859 295.86938232 -10.90386719 296.3207959 -10.16210938 296.78588867 C-7.74995387 298.14041095 -5.68211243 299.27816158 -3 300 C-0.53242388 299.16067645 -0.53242388 299.16067645 1.82421875 297.4765625 C2.75709717 296.87569824 3.68997559 296.27483398 4.65112305 295.65576172 C6.15412964 294.65053467 6.15412964 294.65053467 7.6875 293.625 C9.85332507 292.22265768 12.02002203 290.82166122 14.1875 289.421875 C14.746082 289.05750336 15.304664 288.69313171 15.88017273 288.31771851 C21.90973122 284.38474348 28.04522462 280.62891782 34.1875 276.875 C36.37275128 275.53313077 38.55765131 274.19068933 40.7421875 272.84765625 C41.7950293 272.20070801 42.84787109 271.55375977 43.93261719 270.88720703 C51.11716396 266.4669152 58.28551242 262.02040526 65.45556641 257.57666016 C69.80276643 254.88291445 74.15147177 252.19160083 78.5 249.5 C80.25000693 248.41667787 82.00000694 247.33334454 83.75 246.25 C178.25 187.75 178.25 187.75 180.87963867 186.12231445 C182.61439887 185.04829214 184.34893984 183.97391565 186.08325195 182.89916992 C190.68960462 180.04530476 195.30056813 177.19924236 199.91796875 174.36328125 C200.88347656 173.76902344 201.84898437 173.17476562 202.84375 172.5625 C204.70304254 171.41831998 206.56366701 170.27630079 208.42578125 169.13671875 C209.25851562 168.62367188 210.09125 168.110625 210.94921875 167.58203125 C211.68487061 167.13061768 212.42052246 166.6792041 213.1784668 166.21411133 C215.13427157 164.99653319 215.13427157 164.99653319 217 163 C202.13730914 153.46186475 187.15480045 144.13407419 172.09960938 134.90332031 C167.4550433 132.05131676 162.82043935 129.18334035 158.1875 126.3125 C157.34050537 125.787771 156.49351074 125.26304199 155.62084961 124.72241211 C153.9286471 123.67393115 152.236508 122.62534784 150.54443359 121.57666016 C146.19723357 118.88291445 141.84852823 116.19160083 137.5 113.5 C135.74999307 112.41667787 133.99999306 111.33334454 132.25 110.25 C131.38375 109.71375 130.5175 109.1775 129.625 108.625 C99 89.66666667 68.375 70.70833333 37.75 51.75 C36.8822998 51.21286377 36.01459961 50.67572754 35.12060547 50.12231445 C33.38521221 49.04800029 31.64986008 47.97361969 29.91455078 46.89916992 C25.31641724 44.05227357 20.71740099 41.20681565 16.1171875 38.36328125 C14.67569336 37.47189453 14.67569336 37.47189453 13.20507812 36.5625 C11.3576835 35.4201497 9.51003853 34.27820415 7.66210938 33.13671875 C6.83259766 32.62367187 6.00308594 32.110625 5.1484375 31.58203125 C4.05281494 30.90491089 4.05281494 30.90491089 2.93505859 30.21411133 C1.27213578 29.17074581 -0.36656768 28.08895488 -2 27 C-6.30466051 27 -7.24327626 27.47924981 -10.7265625 29.71875 Z M-198.16015625 215.37890625 C-198.9493042 215.88518555 -199.73845215 216.39146484 -200.55151367 216.91308594 C-201.7944519 217.7295459 -201.7944519 217.7295459 -203.0625 218.5625 C-203.90852783 219.1080957 -204.75455566 219.65369141 -205.6262207 220.21582031 C-207.31268182 221.30390135 -208.99689652 222.39547305 -210.67871094 223.49072266 C-213.66719315 225.43380185 -216.67580845 227.34311958 -219.6875 229.25 C-221.1252293 230.16630699 -222.5628396 231.082801 -224 232 C-222.8347735 235.49567951 -222.26557276 235.72462934 -219.1953125 237.49609375 C-218.39464355 237.96563477 -217.59397461 238.43517578 -216.76904297 238.91894531 C-215.89650879 239.42006836 -215.02397461 239.92119141 -214.125 240.4375 C-212.27492284 241.52283467 -210.42598924 242.6101207 -208.578125 243.69921875 C-207.63904297 244.2514209 -206.69996094 244.80362305 -205.73242188 245.37255859 C-201.73094465 247.75585444 -197.80065712 250.24440667 -193.875 252.75 C-183.04063958 259.64292643 -172.09046595 266.34510714 -161.14794922 273.06445312 C-156.48858042 275.92931088 -151.83713203 278.80687399 -147.1875 281.6875 C-145.91737061 282.47435181 -145.91737061 282.47435181 -144.62158203 283.27709961 C-142.92914049 284.32575157 -141.23675727 285.37449767 -139.54443359 286.42333984 C-135.19723359 289.11708554 -130.8485453 291.80842678 -126.5 294.5 C-121.30788832 297.7137066 -116.11602221 300.92780403 -110.92578125 304.14453125 C-102.45559512 309.39281419 -93.97894807 314.63014339 -85.48901367 319.84643555 C-74.98500003 326.30046567 -64.50756518 332.79396995 -54.06176758 339.34179688 C-48.79095073 342.64208896 -43.5099733 345.9248915 -38.2109375 349.1796875 C-37.64338242 349.52840912 -37.07582733 349.87713074 -36.49107361 350.23641968 C-33.68101211 351.96204561 -30.86875365 353.68396547 -28.05395508 355.40185547 C-23.45485294 358.21657198 -18.87998669 361.0380011 -14.42578125 364.078125 C-13.77754395 364.51721191 -13.12930664 364.95629883 -12.46142578 365.40869141 C-10.84187238 366.51915315 -9.23837174 367.65293477 -7.63671875 368.7890625 C-5.08619217 370.31719334 -5.08619217 370.31719334 -2.63671875 369.2578125 C-0.0203656 368.00971515 2.3767335 366.63811951 4.82421875 365.0859375 C5.75685547 364.498125 6.68949219 363.9103125 7.65039062 363.3046875 C8.65263672 362.66789063 9.65488281 362.03109375 10.6875 361.375 C12.85753699 360.00696202 15.02812892 358.63980399 17.19921875 357.2734375 C17.7584201 356.9210199 18.31762146 356.56860229 18.89376831 356.20550537 C24.900524 352.42372483 30.94913946 348.71070845 37 345 C45.42090043 339.83103251 53.81660408 334.6245449 62.1875 329.375 C70.86927173 323.9318473 79.60010761 318.57636322 88.36279297 313.26464844 C96.22118947 308.49314462 104.01999062 303.63047198 111.80859375 298.74609375 C119.18235076 294.1255871 126.58417327 289.55263918 134 285 C143.34523847 279.26199999 152.65794694 273.47487113 161.94995117 267.65112305 C169.38038231 262.99923431 176.84107421 258.39820631 184.3125 253.8125 C194.9306252 247.29485098 205.48792657 240.68719852 216 234 C214.80219822 230.40659467 214.02843459 230.13647227 210.84375 228.29296875 C209.98523438 227.78830078 209.12671875 227.28363281 208.2421875 226.76367188 C206.88480469 225.9834668 206.88480469 225.9834668 205.5 225.1875 C203.73826454 224.16241941 201.97783912 223.13508397 200.21875 222.10546875 C199.34863281 221.60063965 198.47851562 221.09581055 197.58203125 220.57568359 C194.28327888 218.56262121 191.1769705 216.31740596 188.08789062 213.99731445 C185.27280832 212.65264523 183.93587672 213.04477163 181 214 C178.65068726 215.14488 178.65068726 215.14488 176.32421875 216.6328125 C174.97783325 217.45918213 174.97783325 217.45918213 173.60424805 218.30224609 C172.64172119 218.90375488 171.67919434 219.50526367 170.6875 220.125 C169.67276611 220.75100098 168.65803223 221.37700195 167.61254883 222.02197266 C164.40279145 224.00582731 161.2004563 226.00118022 158 228 C157.00871094 228.61810547 156.01742188 229.23621094 154.99609375 229.87304688 C151.0625529 232.32692689 147.13083096 234.78366281 143.20263672 237.24609375 C133.58887064 243.27119671 123.92461737 249.21285807 114.2578125 255.15234375 C106.00727844 260.22211636 97.77548694 265.32202498 89.54443359 270.42333984 C85.19723357 273.11708555 80.84852823 275.80839917 76.5 278.5 C74.74999307 279.58332213 72.99999306 280.66665546 71.25 281.75 C55.5 291.5 55.5 291.5 39.75 301.25 C38.88270264 301.78713623 38.01540527 302.32427246 37.12182617 302.87768555 C35.38326614 303.95345903 33.64385372 305.02785625 31.90356445 306.10083008 C27.34534197 308.9137506 22.80728957 311.75378431 18.29296875 314.63671875 C17.35453125 315.23097656 16.41609375 315.82523437 15.44921875 316.4375 C13.66104341 317.57060121 11.87810053 318.7120202 10.1015625 319.86328125 C-0.8694988 326.78322166 -0.8694988 326.78322166 -6.98022461 325.62451172 C-12.21861615 323.85254266 -16.78091106 320.83097174 -21.375 317.8125 C-23.05105735 316.7327807 -24.72820236 315.65474849 -26.40625 314.578125 C-27.3034375 314.00126953 -28.200625 313.42441406 -29.125 312.83007812 C-34.33681844 309.51250076 -39.60815641 306.29172646 -44.875 303.0625 C-47.10555408 301.69284729 -49.33602335 300.32305644 -51.56640625 298.953125 C-52.65066895 298.28732422 -53.73493164 297.62152344 -54.85205078 296.93554688 C-59.51141958 294.07068912 -64.16286797 291.19312601 -68.8125 288.3125 C-69.65925293 287.78793213 -70.50600586 287.26336426 -71.37841797 286.72290039 C-73.07085951 285.67424843 -74.76324273 284.62550233 -76.45556641 283.57666016 C-80.80276643 280.88291445 -85.15147177 278.19160083 -89.5 275.5 C-91.25000693 274.41667787 -93.00000694 273.33334454 -94.75 272.25 C-95.61625 271.71375 -96.4825 271.1775 -97.375 270.625 C-122.3125 255.1875 -122.3125 255.1875 -147.25 239.75 C-148.55118774 238.94453735 -148.55118774 238.94453735 -149.87866211 238.12280273 C-151.61653845 237.04692828 -153.35433236 235.97092067 -155.09204102 234.89477539 C-159.65184201 232.0711849 -164.21334501 229.25039485 -168.77734375 226.43359375 C-169.72480469 225.84835938 -170.67226562 225.263125 -171.6484375 224.66015625 C-173.45650067 223.54341135 -175.26506387 222.42747545 -177.07421875 221.3125 C-177.8940625 220.80589844 -178.71390625 220.29929688 -179.55859375 219.77734375 C-180.32800293 219.30280762 -181.09741211 218.82827148 -181.89013672 218.33935547 C-183.75521481 217.15539129 -185.54966938 215.9109344 -187.34765625 214.62890625 C-191.62583732 212.00151081 -194.22356063 212.82063642 -198.16015625 215.37890625 Z M-199.39453125 286.140625 C-200.43287109 286.79933594 -201.47121094 287.45804687 -202.54101562 288.13671875 C-204.16040039 289.18279297 -204.16040039 289.18279297 -205.8125 290.25 C-207.94328432 291.61051286 -210.07477689 292.96991721 -212.20703125 294.328125 C-213.20686035 294.96685547 -214.20668945 295.60558594 -215.23681641 296.26367188 C-218.44160225 298.27749383 -221.68898126 300.16736766 -225 302 C-221.31913688 306.25255031 -216.73760562 308.70883761 -211.9375 311.5 C-205.18520786 315.48716075 -198.48773333 319.53525147 -191.875 323.75 C-181.0401593 330.64219119 -170.09048202 337.34509727 -159.14794922 344.06445312 C-154.48858042 346.92931088 -149.83713203 349.80687399 -145.1875 352.6875 C-143.91737061 353.47435181 -143.91737061 353.47435181 -142.62158203 354.27709961 C-140.92914049 355.32575157 -139.23675727 356.37449767 -137.54443359 357.42333984 C-133.19723357 360.11708555 -128.84852823 362.80839917 -124.5 365.5 C-122.74999307 366.58332213 -120.99999306 367.66665546 -119.25 368.75 C-118.38375 369.28625 -117.5175 369.8225 -116.625 370.375 C-93 385 -69.375 399.625 -45.75 414.25 C-44.44844971 415.05570435 -44.44844971 415.05570435 -43.12060547 415.87768555 C-41.38521221 416.95199971 -39.64986008 418.02638031 -37.91455078 419.10083008 C-33.31641724 421.94772643 -28.71740099 424.79318435 -24.1171875 427.63671875 C-23.15619141 428.23097656 -22.19519531 428.82523438 -21.20507812 429.4375 C-19.3576835 430.5798503 -17.51003853 431.72179585 -15.66210938 432.86328125 C-14.83259766 433.37632812 -14.00308594 433.889375 -13.1484375 434.41796875 C-12.41802246 434.86938232 -11.68760742 435.3207959 -10.93505859 435.78588867 C-9.27213578 436.82925419 -7.63343232 437.91104512 -6 439 C-0.78517963 438.86653111 3.51257116 435.53086326 7.8125 432.875 C8.68632324 432.34293945 9.56014648 431.81087891 10.46044922 431.26269531 C19.25562345 425.88915858 27.98396191 420.40679868 36.71484375 414.9296875 C43.18431919 410.87649771 49.68277187 406.87130306 56.1875 402.875 C66.62325469 396.4631525 77.04475334 390.02891276 87.45556641 383.57666016 C91.80276643 380.88291445 96.15147177 378.19160083 100.5 375.5 C102.25000693 374.41667787 104.00000694 373.33334454 105.75 372.25 C158.25 339.75 158.25 339.75 160.87475586 338.12524414 C162.62568066 337.04127628 164.37649438 335.95712898 166.12719727 334.87280273 C170.48715721 332.17269927 174.84896898 329.47568691 179.21484375 326.78515625 C191.88369993 318.97137391 204.46183981 311.0217359 217 303 C212.39918884 299.02092007 207.28434591 296.07301638 202.0625 293 C200.30255372 291.95973914 198.54341885 290.91810411 196.78515625 289.875 C195.53822998 289.14216797 195.53822998 289.14216797 194.26611328 288.39453125 C192.32973979 287.20291679 190.554874 285.93366263 188.74609375 284.5625 C186.11485122 282.78032288 186.11485122 282.78032288 183.16015625 282.921875 C178.79752463 284.41023882 175.26487592 286.71234391 171.4375 289.25 C169.73635872 290.35131402 168.03451037 291.45153647 166.33203125 292.55078125 C165.45369629 293.12135254 164.57536133 293.69192383 163.67041016 294.27978516 C159.35812475 297.05765707 154.99219798 299.74709997 150.625 302.4375 C148.85670897 303.52984778 147.08848016 304.62229628 145.3203125 305.71484375 C144.44149414 306.25737793 143.56267578 306.79991211 142.65722656 307.35888672 C138.26922131 310.06893554 133.88477995 312.78473707 129.5 315.5 C127.75001735 316.58336135 126.00001734 317.66669468 124.25 318.75 C123.38375 319.28625 122.5175 319.8225 121.625 320.375 C98 335 74.375 349.625 50.75 364.25 C49.4496582 365.05497925 49.4496582 365.05497925 48.12304688 365.8762207 C46.37957118 366.95550746 44.63608168 368.03477191 42.89257812 369.11401367 C34.80329492 374.12138976 34.80329492 374.12138976 26.71606445 379.13208008 C24.92476424 380.24035148 23.13166778 381.34572555 21.33666992 382.44799805 C17.56131893 384.76933598 13.8098506 387.10152755 10.14453125 389.59375 C9.57154297 389.97426514 8.99855469 390.35478027 8.40820312 390.74682617 C6.95512071 391.71725223 5.51763952 392.71093681 4.08203125 393.70703125 C-0.41855933 395.59511171 -4.19574172 395.86717409 -9 395 C-12.82418259 393.38937844 -16.17226384 391.22482062 -19.625 388.9375 C-20.61717529 388.3069873 -21.60935059 387.67647461 -22.6315918 387.02685547 C-24.72050947 385.69815608 -26.80370231 384.36041753 -28.88134766 383.01416016 C-32.84710073 380.45290582 -36.85134667 377.95663094 -40.85961914 375.46264648 C-43.85057517 373.60130494 -46.83570396 371.7308743 -49.8203125 369.859375 C-58.42992896 364.47182977 -67.08880313 359.16447532 -75.7421875 353.84765625 C-83.99272156 348.77788364 -92.22451306 343.67797502 -100.45556641 338.57666016 C-104.80276643 335.88291445 -109.15147177 333.19160083 -113.5 330.5 C-115.25000693 329.41667787 -117.00000694 328.33334454 -118.75 327.25 C-119.61625 326.71375 -120.4825 326.1775 -121.375 325.625 C-131 319.66666667 -140.625 313.70833333 -150.25 307.75 C-151.1177002 307.21286377 -151.98540039 306.67572754 -152.87939453 306.12231445 C-154.61478779 305.04800029 -156.35013992 303.97361969 -158.08544922 302.89916992 C-162.68358276 300.05227357 -167.28259901 297.20681565 -171.8828125 294.36328125 C-172.84380859 293.76902344 -173.80480469 293.17476563 -174.79492188 292.5625 C-176.6423165 291.4201497 -178.48996147 290.27820415 -180.33789062 289.13671875 C-181.5821582 288.36714844 -181.5821582 288.36714844 -182.8515625 287.58203125 C-183.58197754 287.13061768 -184.31239258 286.6792041 -185.06494141 286.21411133 C-186.72786422 285.17074581 -188.36656768 284.08895488 -190 283 C-194.50321433 283 -195.69121273 283.76506695 -199.39453125 286.140625 Z " fill="#000000" transform="translate(260,23)"/>
</svg>
