<?xml version="1.0" encoding="UTF-8"?>
<svg version="1.1" xmlns="http://www.w3.org/2000/svg" width="512" height="512">
<path d="M0 0 C0.81101426 -0.00465992 1.62202853 -0.00931984 2.45761898 -0.01412097 C5.1865905 -0.02611158 7.91506788 -0.01665992 10.64404392 -0.00736332 C12.61574071 -0.01153445 14.5874351 -0.01701075 16.55912501 -0.02368313 C21.98624443 -0.03818533 27.41321262 -0.03387812 32.8403405 -0.02651632 C38.6897891 -0.02179875 44.53920431 -0.03428195 50.38864231 -0.04453373 C61.85154892 -0.06175468 73.31440079 -0.06255493 84.77731698 -0.05732083 C94.09160725 -0.0532841 103.40588129 -0.05471675 112.72017193 -0.06006908 C114.0577607 -0.06082595 115.39534947 -0.06158193 116.73293825 -0.06233703 C118.748487 -0.0634822 120.76403575 -0.06463208 122.77958449 -0.06579627 C141.5219191 -0.0765036 160.26424771 -0.08122412 179.00658417 -0.07332611 C179.71330998 -0.07302894 180.42003579 -0.07273176 181.14817754 -0.07242559 C186.88753548 -0.06997657 192.62689335 -0.06736503 198.36625121 -0.06474145 C220.75579804 -0.05463818 243.14526988 -0.06299499 265.53480625 -0.086236 C290.68237645 -0.11229762 315.8299015 -0.1251595 340.97748572 -0.11804825 C343.65793962 -0.11733217 346.33839354 -0.11665779 349.01884747 -0.1160078 C350.33777296 -0.11568569 351.65669846 -0.11536358 353.01559139 -0.1150317 C362.320819 -0.11372903 371.62599505 -0.12209084 380.93121243 -0.13429928 C392.26822248 -0.14898855 403.60512758 -0.14969962 414.94213551 -0.13222837 C420.7291658 -0.12368908 426.51600833 -0.12164012 432.30302906 -0.13687992 C437.59732698 -0.15064986 442.89127491 -0.14606343 448.18555219 -0.12664068 C450.10406909 -0.12285663 452.02261352 -0.12587125 453.94110607 -0.13625234 C456.54349438 -0.14933619 459.14465927 -0.1379164 461.74699402 -0.12025452 C462.87152272 -0.13473028 462.87152272 -0.13473028 464.01876917 -0.14949849 C469.12960436 -0.07798649 472.05737249 1.0731216 475.93641758 4.38031673 C479.10729008 8.33378729 479.31391358 11.46446263 479.32232094 16.45721149 C479.32758005 17.16155862 479.33283916 17.86590575 479.33825764 18.59159672 C479.35224168 20.95773778 479.34484088 23.3233261 479.33755589 25.68949032 C479.34315965 27.40061349 479.35006154 29.11173283 479.35815185 30.82284606 C479.37653223 35.52973209 479.37610204 40.23645849 479.37256873 44.94337225 C479.37195737 50.01779213 479.38850653 55.09216042 479.40274143 60.16655636 C479.42767674 70.10978266 479.43590665 80.05295561 479.43757857 89.99621056 C479.43900322 98.07670349 479.44516332 106.15717878 479.45468044 114.23766613 C479.48110382 137.13774898 479.49493789 160.03778963 479.49268902 182.93788783 C479.49256915 184.17282492 479.49244928 185.407762 479.49232578 186.68012142 C479.49220314 187.91656287 479.4920805 189.15300432 479.49195414 190.42691369 C479.49073443 210.47140476 479.51945022 230.51572685 479.56174088 250.56016903 C479.60480301 271.13224895 479.62555308 291.7042464 479.62295955 312.27637255 C479.62196267 323.82989582 479.63024633 335.38324193 479.66249371 346.93672466 C479.68977044 356.77250729 479.69636629 366.60803242 479.67596544 376.44383644 C479.66615028 381.46352918 479.66606849 386.48272756 479.69202518 391.5023737 C479.7155392 396.09682741 479.71141189 400.69039254 479.68517279 405.28482385 C479.68054962 406.94764514 479.68608498 408.61053184 479.70275301 410.27327602 C479.83350146 424.2403135 479.83350146 424.2403135 476.26506042 428.79051304 C472.10818445 432.91672619 466.74071733 433.6048813 461.0871577 433.64811501 C460.34766966 433.64371852 459.60818163 433.63932204 458.84628487 433.63479233 C458.0445466 433.63799881 457.24280833 433.64120528 456.41677496 433.64450893 C453.7254603 433.65282208 451.03436742 433.64688003 448.34304905 433.64101315 C446.3959523 433.64403322 444.44885674 433.64792198 442.50176328 433.65260571 C437.14727046 433.66291289 431.79284439 433.66069697 426.43834603 433.65642512 C420.66525013 433.65396284 414.89217052 433.66296582 409.11908054 433.67046261 C397.80771811 433.68322528 386.4963794 433.68500136 375.18501098 433.68266235 C365.99327681 433.68088087 356.80154986 433.68262517 347.60981655 433.68688679 C345.64911179 433.68777957 345.64911179 433.68777957 343.64879684 433.68869039 C340.99354216 433.68990211 338.33828748 433.69111625 335.6830328 433.69233277 C317.84963496 433.70027689 300.01623964 433.70403748 282.18284035 433.70001602 C281.48540293 433.69985965 280.78796551 433.69970327 280.06939363 433.69954216 C276.53446306 433.69873637 272.9995325 433.69789059 269.46460194 433.69702885 C268.76254684 433.69685777 268.06049174 433.69668668 267.33716224 433.69651041 C265.91743653 433.69616375 264.49771083 433.69581522 263.07798513 433.69546482 C240.98366102 433.69010679 218.88937682 433.69804013 196.79506016 433.71649837 C171.97489146 433.73720957 147.1547477 433.74791173 122.33456987 433.74392289 C109.19156962 433.74200818 96.04860572 433.74452467 82.90561199 433.75863743 C71.7176242 433.77052915 60.52969515 433.77198094 49.34170658 433.75984726 C43.63153313 433.75394319 37.92146724 433.7529013 32.21130085 433.76484966 C26.98612732 433.77565633 21.76115184 433.77266751 16.53598779 433.75858798 C14.64372682 433.75592663 12.75145059 433.75835238 10.85920454 433.76632384 C8.29002659 433.77639747 5.72154138 433.76803579 3.15239143 433.75504684 C2.41524457 433.76235619 1.6780977 433.76966554 0.91861305 433.77719638 C-4.19592674 433.72348423 -7.60245653 432.70944764 -12.06358242 430.38031673 C-16.43751061 425.66107843 -17.18873718 423.04003955 -17.1978035 416.68538952 C-17.20015573 415.9858927 -17.20250796 415.28639589 -17.20493147 414.5657022 C-17.21164171 412.19816665 -17.21116264 409.83068573 -17.21075344 407.46314144 C-17.21405081 405.75802328 -17.2177761 404.0529059 -17.22189492 402.34778953 C-17.23193751 397.64363917 -17.23563533 392.93950158 -17.23828423 388.23534203 C-17.24218059 383.16908822 -17.25175936 378.10284458 -17.26049709 373.03659725 C-17.28028022 360.79258143 -17.29032996 348.54856475 -17.29922488 336.30453694 C-17.30360467 330.54330492 -17.30897227 324.78207383 -17.31421375 319.02084255 C-17.33122772 299.87730888 -17.34572294 280.73377579 -17.35296249 261.59023571 C-17.35487249 256.61987209 -17.35679281 251.64950847 -17.35874844 246.67914486 C-17.35947405 244.82603038 -17.35947405 244.82603038 -17.36021432 242.93547925 C-17.36851851 222.91279878 -17.39386126 202.89017798 -17.42632911 182.86752358 C-17.45936758 162.32606467 -17.47740834 141.78463611 -17.48060673 121.24315047 C-17.48277479 109.70362223 -17.49156658 98.16418101 -17.51706791 86.62467861 C-17.53873104 76.79909176 -17.54684699 66.97361306 -17.53710113 57.14800504 C-17.5325437 52.13260335 -17.53452617 47.11742498 -17.55386257 42.10205364 C-17.57140431 37.51264264 -17.57057005 32.92361937 -17.55496528 28.33420476 C-17.55257548 26.67198376 -17.55698336 25.00973654 -17.56879393 23.34755579 C-17.58383899 21.09076604 -17.5742933 18.83536332 -17.55856705 16.57860851 C-17.55954386 15.32433725 -17.56052066 14.07006598 -17.56152707 12.77778649 C-16.82122377 7.72670688 -14.72392223 4.74880983 -10.81755632 1.52908653 C-7.1901808 0.01599324 -3.86433235 -0.03462179 0 0 Z M-0.06358242 16.38031673 C-0.06358242 38.49031673 -0.06358242 60.60031673 -0.06358242 83.38031673 C45.47641758 83.38031673 91.01641758 83.38031673 137.93641758 83.38031673 C137.93641758 61.27031673 137.93641758 39.16031673 137.93641758 16.38031673 C92.39641758 16.38031673 46.85641758 16.38031673 -0.06358242 16.38031673 Z M154.93641758 16.38031673 C154.93641758 38.49031673 154.93641758 60.60031673 154.93641758 83.38031673 C205.09641758 83.38031673 255.25641758 83.38031673 306.93641758 83.38031673 C306.93641758 61.27031673 306.93641758 39.16031673 306.93641758 16.38031673 C256.77641758 16.38031673 206.61641758 16.38031673 154.93641758 16.38031673 Z M323.93641758 16.38031673 C323.93641758 38.49031673 323.93641758 60.60031673 323.93641758 83.38031673 C369.80641758 83.38031673 415.67641758 83.38031673 462.93641758 83.38031673 C462.93641758 61.27031673 462.93641758 39.16031673 462.93641758 16.38031673 C417.06641758 16.38031673 371.19641758 16.38031673 323.93641758 16.38031673 Z M-0.06358242 100.38031673 C-0.06358242 122.16031673 -0.06358242 143.94031673 -0.06358242 166.38031673 C17.75641758 166.38031673 35.57641758 166.38031673 53.93641758 166.38031673 C53.93641758 144.60031673 53.93641758 122.82031673 53.93641758 100.38031673 C36.11641758 100.38031673 18.29641758 100.38031673 -0.06358242 100.38031673 Z M70.93641758 100.38031673 C70.93641758 122.16031673 70.93641758 143.94031673 70.93641758 166.38031673 C120.76641758 166.38031673 170.59641758 166.38031673 221.93641758 166.38031673 C221.93641758 144.60031673 221.93641758 122.82031673 221.93641758 100.38031673 C172.10641758 100.38031673 122.27641758 100.38031673 70.93641758 100.38031673 Z M238.93641758 100.38031673 C238.93641758 122.16031673 238.93641758 143.94031673 238.93641758 166.38031673 C289.09641758 166.38031673 339.25641758 166.38031673 390.93641758 166.38031673 C390.93641758 144.60031673 390.93641758 122.82031673 390.93641758 100.38031673 C340.77641758 100.38031673 290.61641758 100.38031673 238.93641758 100.38031673 Z M407.93641758 100.38031673 C407.93641758 122.16031673 407.93641758 143.94031673 407.93641758 166.38031673 C426.08641758 166.38031673 444.23641758 166.38031673 462.93641758 166.38031673 C462.93641758 144.60031673 462.93641758 122.82031673 462.93641758 100.38031673 C444.78641758 100.38031673 426.63641758 100.38031673 407.93641758 100.38031673 Z M-0.06358242 183.38031673 C-0.06358242 205.16031673 -0.06358242 226.94031673 -0.06358242 249.38031673 C45.47641758 249.38031673 91.01641758 249.38031673 137.93641758 249.38031673 C137.93641758 227.60031673 137.93641758 205.82031673 137.93641758 183.38031673 C92.39641758 183.38031673 46.85641758 183.38031673 -0.06358242 183.38031673 Z M154.93641758 183.38031673 C154.93641758 205.16031673 154.93641758 226.94031673 154.93641758 249.38031673 C205.09641758 249.38031673 255.25641758 249.38031673 306.93641758 249.38031673 C306.93641758 227.60031673 306.93641758 205.82031673 306.93641758 183.38031673 C256.77641758 183.38031673 206.61641758 183.38031673 154.93641758 183.38031673 Z M323.93641758 183.38031673 C323.93641758 205.16031673 323.93641758 226.94031673 323.93641758 249.38031673 C369.80641758 249.38031673 415.67641758 249.38031673 462.93641758 249.38031673 C462.93641758 227.60031673 462.93641758 205.82031673 462.93641758 183.38031673 C417.06641758 183.38031673 371.19641758 183.38031673 323.93641758 183.38031673 Z M-0.06358242 266.38031673 C-0.06358242 288.16031673 -0.06358242 309.94031673 -0.06358242 332.38031673 C17.75641758 332.38031673 35.57641758 332.38031673 53.93641758 332.38031673 C53.93641758 310.60031673 53.93641758 288.82031673 53.93641758 266.38031673 C36.11641758 266.38031673 18.29641758 266.38031673 -0.06358242 266.38031673 Z M70.93641758 266.38031673 C70.93641758 288.16031673 70.93641758 309.94031673 70.93641758 332.38031673 C120.76641758 332.38031673 170.59641758 332.38031673 221.93641758 332.38031673 C221.93641758 310.60031673 221.93641758 288.82031673 221.93641758 266.38031673 C172.10641758 266.38031673 122.27641758 266.38031673 70.93641758 266.38031673 Z M238.93641758 266.38031673 C238.93641758 288.16031673 238.93641758 309.94031673 238.93641758 332.38031673 C289.09641758 332.38031673 339.25641758 332.38031673 390.93641758 332.38031673 C390.93641758 310.60031673 390.93641758 288.82031673 390.93641758 266.38031673 C340.77641758 266.38031673 290.61641758 266.38031673 238.93641758 266.38031673 Z M407.93641758 266.38031673 C407.93641758 288.16031673 407.93641758 309.94031673 407.93641758 332.38031673 C426.08641758 332.38031673 444.23641758 332.38031673 462.93641758 332.38031673 C462.93641758 310.60031673 462.93641758 288.82031673 462.93641758 266.38031673 C444.78641758 266.38031673 426.63641758 266.38031673 407.93641758 266.38031673 Z M-0.06358242 349.38031673 C-0.06358242 371.49031673 -0.06358242 393.60031673 -0.06358242 416.38031673 C45.47641758 416.38031673 91.01641758 416.38031673 137.93641758 416.38031673 C137.93641758 394.27031673 137.93641758 372.16031673 137.93641758 349.38031673 C92.39641758 349.38031673 46.85641758 349.38031673 -0.06358242 349.38031673 Z M154.93641758 349.38031673 C154.93641758 371.49031673 154.93641758 393.60031673 154.93641758 416.38031673 C205.09641758 416.38031673 255.25641758 416.38031673 306.93641758 416.38031673 C306.93641758 394.27031673 306.93641758 372.16031673 306.93641758 349.38031673 C256.77641758 349.38031673 206.61641758 349.38031673 154.93641758 349.38031673 Z M323.93641758 349.38031673 C323.93641758 371.49031673 323.93641758 393.60031673 323.93641758 416.38031673 C369.80641758 416.38031673 415.67641758 416.38031673 462.93641758 416.38031673 C462.93641758 394.27031673 462.93641758 372.16031673 462.93641758 349.38031673 C417.06641758 349.38031673 371.19641758 349.38031673 323.93641758 349.38031673 Z " fill="#000000" transform="translate(25.06358242034912,39.619683265686035)"/>
</svg>
