<?xml version="1.0" encoding="UTF-8"?>
<svg version="1.1" xmlns="http://www.w3.org/2000/svg" width="512" height="512">
<path d="M0 0 C1.91273922 0.3801625 3.82564164 0.75950465 5.73869324 1.13809204 C10.91164054 2.16444712 16.08209932 3.20285287 21.25209332 4.2439692 C26.67065043 5.33350455 32.09111598 6.41346939 37.5112915 7.49491882 C46.60802987 9.31154667 55.70314655 11.13612547 64.79736328 12.96533203 C75.30736126 15.07919474 85.81992068 17.17992268 96.33392215 19.27377445 C106.45894226 21.29051985 116.58198729 23.31701797 126.70420074 25.3477993 C131.00803051 26.211052 135.31253934 27.07079482 139.61763763 27.92769814 C144.68521893 28.93679156 149.75102019 29.95438627 154.81557655 30.97854996 C156.67335166 31.35280267 158.53172096 31.72411976 160.39071465 32.0922718 C162.92962523 32.59557795 165.46615877 33.10951482 168.00238037 33.62617493 C168.73681704 33.76918339 169.47125371 33.91219185 170.22794604 34.05953389 C174.56172431 34.95676514 178.2418148 36.2148309 182.05957031 38.4675293 C183.33100985 41.01040837 183.22851266 42.86119199 183.28417969 45.70825195 C183.306698 46.80344147 183.32921631 47.89863098 183.35241699 49.02700806 C183.42339106 54.05284829 183.48096866 59.07853823 183.51953125 64.10473633 C183.54611795 66.75270698 183.58701972 69.40057447 183.64257812 72.0480957 C183.72181184 75.86801994 183.75486261 79.68596555 183.77832031 83.5065918 C183.81131226 84.68395905 183.8443042 85.86132629 183.8782959 87.07437134 C183.864926 92.59329764 183.70985383 96.45770542 180.03588867 100.75244141 C178.73383582 102.01537059 177.4073198 103.2534852 176.05957031 104.4675293 C174.7191273 105.83144466 173.38338781 107.199996 172.05200195 108.57275391 C170.6103611 110.00759373 169.16617486 111.4398797 167.71972656 112.86987305 C166.95276962 113.63304337 166.18581268 114.39621368 165.39561462 115.18251038 C162.97353406 117.59248108 160.54821211 119.99914756 158.12207031 122.4050293 C154.90179694 125.59881653 151.6847803 128.79583251 148.46972656 131.99487305 C147.72610367 132.7301976 146.98248077 133.46552216 146.21632385 134.22312927 C145.53819138 134.89795853 144.8600589 135.57278778 144.16137695 136.26806641 C143.26039024 137.16119789 143.26039024 137.16119789 142.34120178 138.07237244 C140.94681873 139.27452217 140.94681873 139.27452217 141.05957031 140.4675293 C142.08840332 140.66386963 143.11723633 140.86020996 144.17724609 141.0625 C148.01445343 141.79722224 151.84931447 142.54361721 155.68359375 143.29345703 C157.33955721 143.61562954 158.99613044 143.93468479 160.65332031 144.25048828 C163.04303633 144.70645874 165.43029381 145.17380518 167.81738281 145.64331055 C168.55199738 145.78094315 169.28661194 145.91857574 170.04348755 146.06037903 C174.44617324 146.9400614 178.15014538 148.14862658 182.05957031 150.4675293 C183.33100985 153.01040837 183.22851266 154.86119199 183.28417969 157.70825195 C183.306698 158.80344147 183.32921631 159.89863098 183.35241699 161.02700806 C183.42339106 166.05284829 183.48096866 171.07853823 183.51953125 176.10473633 C183.54611795 178.75270698 183.58701972 181.40057447 183.64257812 184.0480957 C183.72181184 187.86801994 183.75486261 191.68596555 183.77832031 195.5065918 C183.81131226 196.68395905 183.8443042 197.86132629 183.8782959 199.07437134 C183.87559692 200.18847382 183.87289795 201.30257629 183.87011719 202.45043945 C183.8889093 203.90699448 183.8889093 203.90699448 183.90808105 205.39297485 C181.42609151 214.38639307 170.71351652 221.95419787 164.1837616 228.47032166 C162.97861748 229.67661935 161.77369123 230.88313472 160.56896287 232.08984762 C157.27302376 235.38994716 153.97399027 238.68693777 150.67441905 241.98340523 C147.11098263 245.54457451 143.55043057 249.10862567 139.98950195 252.67230225 C133.02085946 259.64538652 126.04952214 266.61577059 119.07720806 273.58518349 C113.41336914 279.24676323 107.75050801 284.90931923 102.08834267 290.57257271 C101.28223842 291.37883019 100.47613418 292.18508767 99.64560253 293.01577719 C98.00805549 294.65364395 96.3705107 296.29151295 94.73296813 297.92938418 C79.38742013 313.27778203 64.03881125 328.62311602 48.68915091 343.96740104 C35.50855739 357.14352186 22.33059511 370.32226952 9.15454102 383.50292969 C-6.14448315 398.80729957 -21.44512064 414.11005352 -36.74835509 429.41021353 C-38.37833245 431.03987233 -40.00830772 432.66953323 -41.63828087 434.29919624 C-42.44029062 435.10105172 -43.24230037 435.90290719 -44.06861344 436.72906132 C-49.7303038 442.38988689 -55.39083015 448.05187481 -61.05091286 453.71430779 C-67.94047339 460.60666625 -74.83179918 467.49725377 -81.72542856 474.38554274 C-85.24487419 477.90235206 -88.76350033 481.41997135 -92.27998161 484.93974495 C-95.49431715 488.15704455 -98.71092339 491.37205503 -101.92941304 494.58519883 C-103.09766997 495.75233211 -104.26507109 496.92032272 -105.43156073 498.0892223 C-107.00850429 499.6691755 -108.58844854 501.24606365 -110.16923237 502.82217312 C-111.04866735 503.70144575 -111.92810233 504.58071837 -112.83418685 505.48663563 C-116.29889737 508.74515027 -118.90610499 508.77435294 -123.62204742 508.71814919 C-131.13586765 508.15067002 -138.50694775 506.4287284 -145.88085938 504.93505859 C-147.79359859 504.5548961 -149.70650101 504.17555395 -151.61955261 503.79696655 C-156.79249991 502.77061147 -161.96295869 501.73220573 -167.13295269 500.69108939 C-172.55150981 499.60155404 -177.97197536 498.5215892 -183.39215088 497.44013977 C-192.48888924 495.62351192 -201.58400592 493.79893312 -210.67822266 491.96972656 C-221.18822064 489.85586385 -231.70078006 487.75513591 -242.21478152 485.66128415 C-252.33980164 483.64453875 -262.46284667 481.61804062 -272.58506012 479.58725929 C-276.88888988 478.7240066 -281.19339871 477.86426377 -285.49849701 477.00736046 C-290.56607831 475.99826704 -295.63187957 474.98067232 -300.69643593 473.95650864 C-302.55421104 473.58225592 -304.41258033 473.21093883 -306.27157402 472.84278679 C-308.8104846 472.33948064 -311.34701814 471.82554378 -313.88323975 471.30888367 C-314.61767642 471.16587521 -315.35211309 471.02286675 -316.10880542 470.8755247 C-320.44258368 469.97829345 -324.12267418 468.72022769 -327.94042969 466.4675293 C-329.21186922 463.92465023 -329.10937203 462.0738666 -329.16503906 459.22680664 C-329.18755737 458.13161713 -329.21007568 457.03642761 -329.23327637 455.90805054 C-329.30425043 450.8822103 -329.36182804 445.85652036 -329.40039062 440.83032227 C-329.42697733 438.18235162 -329.4678791 435.53448412 -329.5234375 432.88696289 C-329.60267122 429.06703866 -329.63572199 425.24909304 -329.65917969 421.4284668 C-329.69217163 420.25109955 -329.72516357 419.0737323 -329.75915527 417.86068726 C-329.74578537 412.34176096 -329.59071321 408.47735317 -325.91674805 404.18261719 C-324.6146952 402.919688 -323.28817917 401.6815734 -321.94042969 400.4675293 C-320.59998668 399.10361393 -319.26424719 397.7350626 -317.93286133 396.36230469 C-316.49122048 394.92746486 -315.04703424 393.49517889 -313.60058594 392.06518555 C-312.833629 391.30201523 -312.06667206 390.53884491 -311.276474 389.75254822 C-308.85439343 387.34257751 -306.42907148 384.93591103 -304.00292969 382.5300293 C-300.78265631 379.33624206 -297.56563967 376.13922609 -294.35058594 372.94018555 C-293.60696304 372.20486099 -292.86334015 371.46953644 -292.09718323 370.71192932 C-291.07998451 369.69968544 -291.07998451 369.69968544 -290.04223633 368.66699219 C-289.44157852 368.0715712 -288.84092072 367.47615021 -288.22206116 366.86268616 C-286.8276781 365.66053643 -286.8276781 365.66053643 -286.94042969 364.4675293 C-287.9692627 364.27118896 -288.9980957 364.07484863 -290.05810547 363.87255859 C-293.89531281 363.13783636 -297.73017385 362.39144139 -301.56445312 361.64160156 C-303.22041658 361.31942905 -304.87698982 361.0003738 -306.53417969 360.68457031 C-308.9238957 360.22859986 -311.31115318 359.76125342 -313.69824219 359.29174805 C-314.43285675 359.15411545 -315.16747131 359.01648285 -315.92434692 358.87467957 C-320.32703261 357.99499719 -324.03100475 356.78643201 -327.94042969 354.4675293 C-329.21186922 351.92465023 -329.10937203 350.0738666 -329.16503906 347.22680664 C-329.18755737 346.13161713 -329.21007568 345.03642761 -329.23327637 343.90805054 C-329.30425043 338.8822103 -329.36182804 333.85652036 -329.40039062 328.83032227 C-329.42697733 326.18235162 -329.4678791 323.53448412 -329.5234375 320.88696289 C-329.60267122 317.06703866 -329.63572199 313.24909304 -329.65917969 309.4284668 C-329.69217163 308.25109955 -329.72516357 307.0737323 -329.75915527 305.86068726 C-329.7564563 304.74658478 -329.75375732 303.6324823 -329.75097656 302.48461914 C-329.76350464 301.51358246 -329.77603271 300.54254578 -329.78894043 299.54208374 C-327.30695089 290.54866552 -316.5943759 282.98086072 -310.06462097 276.46473694 C-308.85947686 275.25843925 -307.6545506 274.05192388 -306.44982225 272.84521097 C-303.15388314 269.54511144 -299.85484965 266.24812082 -296.55527842 262.95165336 C-292.99184201 259.39048409 -289.43128994 255.82643293 -285.87036133 252.26275635 C-278.90171883 245.28967207 -271.93038152 238.319288 -264.95806744 231.3498751 C-259.29422852 225.68829537 -253.63136738 220.02573936 -247.96920204 214.36248589 C-247.1630978 213.55622841 -246.35699355 212.74997093 -245.5264619 211.9192814 C-243.88891487 210.28141464 -242.25137007 208.64354564 -240.6138275 207.00567441 C-225.2682795 191.65727657 -209.91967063 176.31194258 -194.57001028 160.96765756 C-181.38941677 147.79153673 -168.21145448 134.61278908 -155.03540039 121.43212891 C-139.73637622 106.12775902 -124.43573873 90.82500507 -109.13250428 75.52484506 C-107.50252692 73.89518626 -105.87255166 72.26552536 -104.24257851 70.63586235 C-103.44056876 69.83400688 -102.63855901 69.0321514 -101.81224593 68.20599728 C-96.15055557 62.5451717 -90.49002922 56.88318378 -84.82994652 51.22075081 C-77.94038598 44.32839234 -71.04906019 37.43780482 -64.15543082 30.54951585 C-60.63598519 27.03270653 -57.11735904 23.51508725 -53.60087776 19.99531364 C-50.38654222 16.77801405 -47.16993599 13.56300356 -43.95144633 10.34985977 C-42.78318941 9.18272649 -41.61578829 8.01473588 -40.44929864 6.84583629 C-38.87235509 5.2658831 -37.29241084 3.68899494 -35.71162701 2.11288548 C-34.83219203 1.23361285 -33.95275705 0.35434022 -33.04667252 -0.55157703 C-25.32040947 -7.81802576 -9.3191989 -1.8877099 0 0 Z M-24.48740089 15.14511102 C-25.76440036 16.42609756 -25.76440036 16.42609756 -27.0671978 17.73296261 C-27.54855387 18.20624177 -28.02990994 18.67952093 -28.52585256 19.16714188 C-30.14424098 20.76691233 -31.73632979 22.39056001 -33.32980347 24.01512146 C-34.4925584 25.17482546 -35.65684977 26.3329907 -36.82254517 27.489739 C-40.02874081 30.68023779 -43.21262749 33.89222944 -46.39340353 37.10804379 C-49.82446222 40.56925904 -53.27565103 44.01029607 -56.72447205 47.45379639 C-62.69944021 53.42508947 -68.661432 59.40909184 -74.61486435 65.40185356 C-83.22258281 74.066399 -91.84950662 82.71160959 -100.48127915 91.3521843 C-114.48431693 105.37055229 -128.47164298 119.40448956 -142.44921875 133.44824219 C-156.02924318 147.09249435 -169.61658142 160.72939405 -183.21386719 174.35644531 C-184.47052131 175.61585803 -184.47052131 175.61585803 -185.75256239 176.90071344 C-189.95534216 181.1126283 -194.15826661 185.32439875 -198.36126304 189.53609741 C-233.24344655 224.49087853 -268.10019214 259.47094295 -302.94042969 294.4675293 C-300.00953204 296.42146106 -298.4564385 296.93949225 -295.08935547 297.61254883 C-294.10468292 297.81260529 -293.12001038 298.01266174 -292.10549927 298.21878052 C-291.04297943 298.42719574 -289.98045959 298.63561096 -288.88574219 298.8503418 C-287.79204315 299.06947235 -286.69834412 299.28860291 -285.57150269 299.51437378 C-283.25713488 299.976447 -280.94210049 300.43519212 -278.62646484 300.89086914 C-275.0847958 301.58871343 -271.54573939 302.29877703 -268.00683594 303.01049805 C-265.75828362 303.45784509 -263.50959012 303.90448321 -261.26074219 304.3503418 C-260.20227081 304.56280548 -259.14379944 304.77526917 -258.05325317 304.99417114 C-257.06227631 305.18792328 -256.07129944 305.38167542 -255.05029297 305.58129883 C-254.18220001 305.75291534 -253.31410706 305.92453186 -252.41970825 306.10134888 C-249.83264539 306.48344865 -247.54721311 306.72977126 -244.94042969 306.4675293 C-243.19083998 304.15488981 -241.90754297 302.07150226 -240.56542969 299.5300293 C-239.6924324 297.96510831 -238.81729707 296.4013788 -237.94042969 294.83862305 C-237.46476562 293.97994629 -236.98910156 293.12126953 -236.49902344 292.23657227 C-233.62360636 287.12802269 -230.58815618 282.11484085 -227.56542969 277.0925293 C-226.59464478 275.47689087 -226.59464478 275.47689087 -225.60424805 273.82861328 C-206.01074408 241.29549352 -184.63118205 209.91444168 -161.94042969 179.4675293 C-161.41175293 178.75580566 -160.88307617 178.04408203 -160.33837891 177.31079102 C-150.52358873 164.10034795 -140.41029644 151.1657245 -129.94042969 138.4675293 C-128.86843855 137.15663922 -127.79685337 135.84541711 -126.72558594 134.53393555 C-116.49730427 122.03206527 -106.03489566 109.77067668 -95.12011719 97.86206055 C-93.27797937 95.83835001 -91.47554831 93.79128651 -89.69042969 91.7175293 C-86.19524621 87.6980683 -82.57097578 83.80182811 -78.94042969 79.9050293 C-78.35874023 79.27951172 -77.77705078 78.65399414 -77.17773438 78.00952148 C-74.31754806 74.94997424 -71.42489298 71.94134932 -68.44042969 69.00268555 C-66.12375843 66.70721753 -63.95022235 64.35196681 -61.83862305 61.86743164 C-57.47804809 56.8573719 -52.78606834 52.20631899 -48.06933594 47.53393555 C-46.66058047 46.13096372 -45.25182765 44.72798922 -43.84323788 43.32485104 C-41.39861871 40.89107927 -38.95065436 38.46067706 -36.50292969 36.0300293 C-33.55242031 33.09991708 -30.60253349 30.16919591 -27.65647888 27.23460388 C-25.82811718 25.41380342 -23.99749067 23.59527393 -22.16444397 21.77919006 C-21.34616623 20.96421555 -20.52788849 20.14924103 -19.68481445 19.30957031 C-18.59729637 18.22990746 -18.59729637 18.22990746 -17.48780823 17.12843323 C-15.82681983 15.72392066 -15.82681983 15.72392066 -15.94042969 14.4675293 C-19.62544288 13.41329845 -21.20886871 12.98568116 -24.48740089 15.14511102 Z M-2.45556641 25.39916992 C-3.40539902 26.34549789 -3.40539902 26.34549789 -4.37442017 27.3109436 C-6.46852632 29.40343281 -8.54423369 31.51322312 -10.62011719 33.6237793 C-12.07491527 35.08536919 -13.53075162 36.5459263 -14.98757935 38.00549316 C-18.82664537 41.85798974 -22.6500452 45.72569289 -26.4708252 49.59631348 C-29.57585213 52.73658256 -32.69187005 55.86581282 -35.80857658 58.99448395 C-39.54129585 62.74207194 -43.26884536 66.49478171 -46.99511719 70.2487793 C-47.69969936 70.95827225 -48.40428154 71.6677652 -49.13021469 72.39875793 C-51.14505617 74.43005537 -53.15636758 76.46477988 -55.16650391 78.50073242 C-56.04269379 79.38331223 -56.04269379 79.38331223 -56.93658447 80.28372192 C-60.58275035 83.98611332 -64.04877801 87.81068623 -67.44610023 91.74272919 C-69.13828203 93.69589643 -70.88177716 95.59173111 -72.65917969 97.4675293 C-73.59310547 98.4575293 -73.59310547 98.4575293 -74.54589844 99.4675293 C-75.80891927 100.80086263 -77.0719401 102.13419596 -78.33496094 103.4675293 C-82.64937776 108.04098978 -86.83380945 112.70681086 -90.94042969 117.4675293 C-91.43414062 118.03906738 -91.92785156 118.61060547 -92.43652344 119.19946289 C-95.43558179 122.68021931 -98.41921063 126.17422303 -101.40283203 129.66821289 C-102.39422354 130.8283519 -103.38665873 131.98760024 -104.38037109 133.14575195 C-110.4825831 140.25822144 -116.38304399 147.49457673 -122.13964844 154.8894043 C-124.46795641 157.87654443 -126.83760635 160.82767529 -129.21972656 163.77197266 C-141.70452681 179.22667973 -153.41157576 195.29225073 -164.94042969 211.4675293 C-165.4742627 212.21341309 -166.0080957 212.95929688 -166.55810547 213.7277832 C-182.24533693 235.68803471 -197.00119462 258.36023318 -210.94042969 281.4675293 C-211.44467468 282.30299286 -211.44467468 282.30299286 -211.95910645 283.15533447 C-214.19783967 286.86718391 -216.42802301 290.58402633 -218.64932251 294.30633545 C-219.38101744 295.53202513 -220.11389469 296.75700983 -220.84799194 297.98126221 C-221.86903444 299.68620584 -222.88340377 301.3951405 -223.89746094 303.10424805 C-224.48503174 304.09126709 -225.07260254 305.07828613 -225.67797852 306.09521484 C-227.09702359 308.31390443 -227.09702359 308.31390443 -226.94042969 310.4675293 C-218.26119094 312.72773799 -209.54410884 314.63508796 -200.74902344 316.38549805 C-199.42811276 316.65008561 -198.10723634 316.91484424 -196.78639221 317.17976379 C-194.04635973 317.72864607 -191.30592935 318.27548182 -188.56518555 318.82080078 C-185.05403545 319.51958155 -181.5439631 320.22362017 -178.03416348 320.92914867 C-175.31943483 321.47425945 -172.60416409 322.01662853 -169.88871956 322.55816078 C-167.96565755 322.94218021 -166.04305879 323.32851714 -164.12046814 323.71488953 C-162.95818192 323.94545547 -161.79589569 324.17602142 -160.59838867 324.41357422 C-159.57535141 324.61770432 -158.55231415 324.82183441 -157.49827576 325.03215027 C-154.87995832 325.55142915 -154.87995832 325.55142915 -151.94042969 325.4675293 C-151.7003418 324.50492187 -151.46025391 323.54231445 -151.21289062 322.55053711 C-139.67539524 276.53469998 -124.29592731 232.85354957 -102.94042969 190.4675293 C-102.27430664 189.13359131 -102.27430664 189.13359131 -101.59472656 187.77270508 C-83.10833232 150.90978028 -59.25953193 116.26629242 -32.32324219 85.0769043 C-30.84085603 83.35164131 -29.37412674 81.61386869 -27.90917969 79.8737793 C-22.79866012 73.82242106 -17.6224038 67.99340143 -11.94042969 62.46362305 C-10.06742597 60.59427754 -8.34186939 58.66973246 -6.62792969 56.6550293 C-3.08235023 52.51438755 0.77258443 48.7263893 4.64770508 44.89892578 C8.0619264 41.51047622 11.28081826 38.02183419 14.39160156 34.3503418 C16.95790934 31.45347915 19.75464564 28.79973458 22.55566406 26.1315918 C24.28307125 24.59405246 24.28307125 24.59405246 24.05957031 22.4675293 C21.66487302 21.96148006 19.26905315 21.46253412 16.87207031 20.9675293 C16.19853516 20.82444336 15.525 20.68135742 14.83105469 20.53393555 C12.91447272 20.14126997 10.9869728 19.80307709 9.05957031 19.4675293 C7.90701248 19.26371643 7.90701248 19.26371643 6.73117065 19.05578613 C2.58146239 19.69533314 0.35969746 22.50538293 -2.45556641 25.39916992 Z M40.97363281 30.0300293 C40.17203735 30.8480603 40.17203735 30.8480603 39.35424805 31.68261719 C38.80325439 32.27163818 38.25226074 32.86065918 37.68457031 33.4675293 C36.81650757 34.36556274 36.81650757 34.36556274 35.9309082 35.28173828 C32.47699686 38.87954234 29.15580544 42.57346641 25.93066406 46.37768555 C22.91944203 49.74095024 19.67682902 52.87009297 16.46606445 56.04150391 C13.08859829 59.39351578 9.91700558 62.84976394 6.83300781 66.4753418 C4.66843613 68.9069091 2.37527578 71.17964011 0.05957031 73.4675293 C-4.15764743 77.64681104 -8.08453697 81.95784359 -11.94042969 86.4675293 C-12.91712536 87.58183619 -13.8951102 88.69501377 -14.87402344 89.80737305 C-21.69846473 97.58158661 -28.29192968 105.48223079 -34.58105469 113.69604492 C-35.93113147 115.45541223 -37.29483305 117.20359153 -38.65917969 118.9519043 C-53.62268912 138.32119137 -66.97559473 159.13255698 -78.94042969 180.4675293 C-79.5342041 181.52488281 -80.12797852 182.58223633 -80.73974609 183.67163086 C-103.40479127 224.33070488 -120.35521492 267.7514761 -132.12792969 312.7800293 C-132.56528442 314.45150024 -132.56528442 314.45150024 -133.01147461 316.15673828 C-134.16789468 320.74390721 -134.99959559 324.72768322 -134.94042969 329.4675293 C-131.1508428 331.3235017 -128.15230635 331.93217615 -123.94042969 331.4675293 C-117.91820513 328.26849528 -113.13223392 322.78584946 -108.35058594 318.02612305 C-106.87472486 316.58956209 -105.39785441 315.15403748 -103.92002869 313.71949768 C-100.82490816 310.69770207 -97.75759592 307.65049083 -94.70483398 304.5859375 C-91.59909811 301.47470532 -88.45544992 298.4132437 -85.26342773 295.390625 C-61.77611734 274.21853459 -61.77611734 274.21853459 -52.90675354 245.11302185 C-52.90850319 242.96113673 -52.93637958 240.80907819 -52.99324036 238.65794373 C-52.9018498 233.13682932 -51.6060047 227.87776837 -50.31542969 222.5300293 C-50.04846283 221.42011124 -49.78149597 220.31019318 -49.50643921 219.16664124 C-44.45047957 198.61321991 -37.37533447 178.41473759 -27.94042969 159.4675293 C-27.52180664 158.61932617 -27.10318359 157.77112305 -26.671875 156.8972168 C-15.07855763 133.59026593 -0.96144804 113.09713284 16.05957031 93.4675293 C16.76339844 92.65026367 17.46722656 91.83299805 18.19238281 90.9909668 C22.97108502 85.55814565 28.01995263 80.4068034 33.12207031 75.2800293 C33.78295654 74.61447021 34.44384277 73.94891113 35.12475586 73.26318359 C39.0357207 69.3648207 43.06518498 65.67167949 47.24487305 62.06396484 C49.62677743 59.9685427 51.84698637 57.73991281 54.05957031 55.4675293 C57.59204297 51.89191193 61.21387641 48.53616437 65.03222656 45.2722168 C68.87880335 41.84809642 72.45712457 38.145026 76.05957031 34.4675293 C73.56536435 31.97332334 72.00925266 31.85916981 68.57128906 31.1784668 C67.47236328 30.95932617 66.3734375 30.74018555 65.24121094 30.5144043 C64.08814453 30.29268555 62.93507813 30.0709668 61.74707031 29.8425293 C60.60560547 29.61307617 59.46414063 29.38362305 58.28808594 29.1472168 C49.01890382 26.59289375 49.01890382 26.59289375 40.97363281 30.0300293 Z M91.59623718 42.64320374 C91.08913712 43.24523117 90.58203705 43.84725861 90.05957031 44.4675293 C89.24488281 45.2615918 88.43019531 46.0556543 87.59082031 46.8737793 C86.92050781 47.5647168 86.25019531 48.2556543 85.55957031 48.9675293 C82.19842549 52.3747172 78.72255828 55.54211104 75.09082031 58.6550293 C72.82318459 60.6784581 70.69380081 62.80406276 68.55957031 64.9675293 C65.85153466 67.71253472 63.11787782 70.3402384 60.18457031 72.8425293 C56.29805811 76.17161345 52.71875862 79.77550303 49.13085938 83.41796875 C46.49135688 86.08265734 43.80219844 88.61368129 40.93457031 91.0300293 C36.18471091 95.10546647 32.15371088 99.74659848 28.05957031 104.4675293 C27.22683594 105.40081055 26.39410156 106.3340918 25.53613281 107.2956543 C-3.35800468 140.07845889 -38.34273798 198.01835799 -36.94042969 243.4675293 C-31.70266204 239.08854559 -26.81545947 234.48264965 -21.99940491 229.64675903 C-21.22979964 228.87800819 -20.46019438 228.10925735 -19.66726774 227.31721103 C-17.10237803 224.75396166 -14.54106662 222.18716708 -11.97973633 219.62036133 C-10.13657757 217.77692036 -8.29319831 215.93369984 -6.44961548 214.09068298 C-2.48766807 210.12925849 1.47245249 206.16601541 5.43131828 202.20151138 C11.15509109 196.46959209 16.88164168 190.74045454 22.60886175 185.01197992 C31.90208862 175.71656748 41.19308274 166.41892669 50.48266602 157.11987305 C59.50362583 148.08972632 68.52564122 139.06063636 77.54907227 130.03295898 C78.10580137 129.47596715 78.66253048 128.91897532 79.23613017 128.34510495 C82.02923982 125.55069021 84.82237018 122.75629616 87.61551082 119.96191239 C110.76674091 96.80032508 133.91434448 73.63511665 157.05957031 50.4675293 C154.04128754 48.45534078 152.19460557 47.88725921 148.70532227 47.11962891 C147.61020828 46.87695786 146.5150943 46.6342868 145.38679504 46.38426208 C140.3768366 45.317219 135.3647162 44.26197941 130.34692383 43.23242188 C127.7006254 42.68701462 125.06092287 42.11865959 122.42407227 41.52929688 C118.61840847 40.68605456 114.8048867 39.89753239 110.98535156 39.11987305 C109.22400627 38.71417336 109.22400627 38.71417336 107.42707825 38.30027771 C100.20907292 36.90783443 96.73514097 37.16478264 91.59623718 42.64320374 Z M161.57927608 69.76052952 C161.10706598 70.22469506 160.63485588 70.6888606 160.14833638 71.16709176 C158.54560244 72.74384909 156.94650739 74.32424691 155.34739685 75.90467834 C154.19589791 77.03929189 153.04421058 78.17371427 151.89234978 79.30796045 C148.71108855 82.44208624 145.53320781 85.57962044 142.35601056 88.71786535 C140.32488588 90.72357509 138.29283242 92.72833902 136.2604599 94.73278427 C109.73059825 120.89855829 83.27688084 147.14119019 56.84619045 173.40709782 C53.49181584 176.74018576 50.13723259 180.07306357 46.7824707 183.40576172 C45.94865468 184.2341101 45.11483866 185.06245848 44.25575549 185.91590833 C30.76418635 199.31657531 17.23111969 212.67455421 3.68172597 226.01672382 C-10.22860747 239.71607256 -24.09481659 253.45892588 -37.92090553 267.24329942 C-46.44883804 275.74282713 -55.0088339 284.20714011 -63.61341118 292.62907856 C-69.51582885 298.41276874 -75.37458861 304.23844029 -81.20131464 310.09836937 C-84.56149095 313.47521322 -87.93719667 316.83095516 -91.36614799 320.13806343 C-107.71425314 334.76964553 -107.71425314 334.76964553 -114.6623258 354.60121101 C-114.49085809 358.99417082 -113.98341662 363.19607659 -112.94042969 367.4675293 C-106.53403252 362.16594908 -100.64512373 356.37546595 -94.73451233 350.53663635 C-93.60256463 349.42161275 -92.47044757 348.30676106 -91.33817667 347.19206566 C-88.23908612 344.139699 -85.14306974 341.08423131 -82.04773414 338.02805746 C-80.06618159 336.07204199 -78.08377139 334.11689982 -76.10108185 332.1620369 C-50.2033146 306.62706988 -24.38053901 281.01642403 1.41882992 255.38208103 C4.68763013 252.13456504 7.95664043 248.88726068 11.22583008 245.64013672 C12.0383094 244.83312504 12.85078872 244.02611335 13.68788863 243.19464677 C26.84934138 230.12419873 40.05227974 217.09645175 53.27139526 204.08435417 C66.85647469 190.71026018 80.39741932 177.29266534 93.8982659 163.83353943 C102.21931742 155.54087636 110.57234955 147.28342654 118.97010011 139.06843173 C124.72669436 133.43056706 130.43960698 127.75074028 136.1205157 122.03662879 C139.39570295 118.74477813 142.686322 115.47407631 146.0302906 112.25199318 C162.03681769 97.88268097 162.03681769 97.88268097 168.7379728 78.37734121 C168.57071126 73.97550781 168.07373513 69.75474374 167.05957031 65.4675293 C164.96258402 65.4675293 162.92176567 68.43719573 161.57927608 69.76052952 Z M118.19042969 160.68969727 C117.62536713 161.24599823 117.06030457 161.80229919 116.4781189 162.37545776 C114.60705401 164.22446981 112.75493845 166.09124502 110.90332031 167.9597168 C109.59712343 169.26254117 108.29018545 170.56462291 106.98254395 171.86599731 C104.23405071 174.60710616 101.49482618 177.3570779 98.76171875 180.11352539 C95.30327877 183.60009094 91.82313127 187.06397629 88.33610821 190.52192307 C67.93005231 210.51757225 67.93005231 210.51757225 51.05957031 233.4675293 C50.63389771 234.16152328 50.2082251 234.85551727 49.76965332 235.57054138 C40.02934928 251.60493691 31.15660856 269.81219901 28.05957031 288.4675293 C28.38957031 289.1275293 28.71957031 289.7875293 29.05957031 290.4675293 C71.29957031 248.2275293 113.53957031 205.9875293 157.05957031 162.4675293 C153.96236613 160.40272651 152.07477905 159.89521387 148.47363281 159.1784668 C146.83007812 158.84975586 146.83007812 158.84975586 145.15332031 158.5144043 C144.00863281 158.29268555 142.86394531 158.0709668 141.68457031 157.8425293 C140.54761719 157.61307617 139.41066406 157.38362305 138.23925781 157.1472168 C133.6612502 156.23974188 133.6612502 156.23974188 129.05957031 155.4675293 C128.29756317 155.35101013 127.53555603 155.23449097 126.75045776 155.11444092 C122.82375225 155.62968881 120.8524747 157.976101 118.19042969 160.68969727 Z M161.57927608 181.76052952 C161.10706598 182.22469506 160.63485588 182.6888606 160.14833638 183.16709176 C158.54560244 184.74384909 156.94650739 186.32424691 155.34739685 187.90467834 C154.19589791 189.03929189 153.04421058 190.17371427 151.89234978 191.30796045 C148.71108855 194.44208624 145.53320781 197.57962044 142.35601056 200.71786535 C140.32488588 202.72357509 138.29283242 204.72833902 136.2604599 206.73278427 C109.73059825 232.89855829 83.27688084 259.14119019 56.84619045 285.40709782 C53.49181584 288.74018576 50.13723259 292.07306357 46.7824707 295.40576172 C45.94865468 296.2341101 45.11483866 297.06245848 44.25575549 297.91590833 C30.76418635 311.31657531 17.23111969 324.67455421 3.68172597 338.01672382 C-10.22860747 351.71607256 -24.09481659 365.45892588 -37.92090553 379.24329942 C-46.44883804 387.74282713 -55.0088339 396.20714011 -63.61341118 404.62907856 C-69.51582885 410.41276874 -75.37458861 416.23844029 -81.20131464 422.09836937 C-84.56149095 425.47521322 -87.93719667 428.83095516 -91.36614799 432.13806343 C-107.71425314 446.76964553 -107.71425314 446.76964553 -114.6623258 466.60121101 C-114.49085809 470.99417082 -113.98341662 475.19607659 -112.94042969 479.4675293 C-106.53403252 474.16594908 -100.64512373 468.37546595 -94.73451233 462.53663635 C-93.60256463 461.42161275 -92.47044757 460.30676106 -91.33817667 459.19206566 C-88.23908612 456.139699 -85.14306974 453.08423131 -82.04773414 450.02805746 C-80.06618159 448.07204199 -78.08377139 446.11689982 -76.10108185 444.1620369 C-50.2033146 418.62706988 -24.38053901 393.01642403 1.41882992 367.38208103 C4.68763013 364.13456504 7.95664043 360.88726068 11.22583008 357.64013672 C12.0383094 356.83312504 12.85078872 356.02611335 13.68788863 355.19464677 C26.84934138 342.12419873 40.05227974 329.09645175 53.27139526 316.08435417 C66.85647469 302.71026018 80.39741932 289.29266534 93.8982659 275.83353943 C102.21931742 267.54087636 110.57234955 259.28342654 118.97010011 251.06843173 C124.72669436 245.43056706 130.43960698 239.75074028 136.1205157 234.03662879 C139.39570295 230.74477813 142.686322 227.47407631 146.0302906 224.25199318 C162.03681769 209.88268097 162.03681769 209.88268097 168.7379728 190.37734121 C168.57071126 185.97550781 168.07373513 181.75474374 167.05957031 177.4675293 C164.96258402 177.4675293 162.92176567 180.43719573 161.57927608 181.76052952 Z M17.05957031 262.4675293 C16.38665199 263.14505658 15.71373367 263.82258387 15.02042389 264.52064228 C-1.35767438 281.00976405 -17.75019676 297.48443739 -34.15792084 313.94408131 C-42.09225922 321.90419544 -50.02185404 329.86892923 -57.94042969 337.84472656 C-64.84269147 344.796842 -71.75371288 351.74010807 -78.67537165 358.67291373 C-82.33965708 362.34371444 -85.99942143 366.01877948 -89.64872742 369.70447731 C-93.08521167 373.17495139 -96.5333066 376.63345278 -99.9905777 380.08321571 C-101.25586722 381.34987841 -102.51689249 382.62081772 -103.77323151 383.89635849 C-105.49314486 385.64125539 -107.22793542 387.36991941 -108.96716309 389.09553528 C-109.45746553 389.60040193 -109.94776797 390.10526858 -110.45292807 390.62543422 C-113.77641566 393.87937467 -116.78486655 395.41025435 -121.15933847 396.69152945 C-124.56625825 398.17588309 -125.8570156 401.33311432 -127.44042969 404.5300293 C-127.99162476 405.57610352 -127.99162476 405.57610352 -128.55395508 406.64331055 C-134.00193282 417.16836966 -139.3397815 427.86262682 -141.94042969 439.4675293 C-140.06620816 439.94973192 -138.19101215 440.42814763 -136.31542969 440.9050293 C-135.27128906 441.17186523 -134.22714844 441.43870117 -133.15136719 441.71362305 C-132.09175781 441.96241211 -131.03214844 442.21120117 -129.94042969 442.4675293 C-129.00096528 442.74456349 -128.06150087 443.02159769 -127.09356785 443.30702686 C-123.82351848 443.78801154 -123.82351848 443.78801154 -121.17023373 441.61732769 C-120.18910862 440.69291198 -119.22657869 439.74852565 -118.27928162 438.78947449 C-117.74273754 438.27372826 -117.20619346 437.75798204 -116.65339047 437.22660714 C-114.85637936 435.49039082 -113.08531173 433.7298916 -111.31323242 431.96826172 C-110.03116906 430.71860163 -108.74773768 429.47034373 -107.46304321 428.22338867 C-103.97208914 424.82436058 -100.50479749 421.40214795 -97.04401278 417.97243285 C-94.87580078 415.82475855 -92.70355222 413.68125007 -90.53001595 411.53896523 C-83.7152533 404.82001203 -76.9147464 398.08710013 -70.13422626 391.33358878 C-62.33723592 383.56783191 -54.49695457 375.84971067 -46.61443561 368.1708023 C-40.50873477 362.21733214 -34.44488152 356.22322332 -28.41016728 350.19781762 C-24.81336114 346.60829488 -21.20216055 343.03724211 -17.54635429 339.50774193 C4.54269543 318.35532181 4.54269543 318.35532181 11.7847271 289.36699867 C12.27110171 284.23597045 13.87054202 279.42086107 15.43457031 274.5300293 C15.85954504 273.16409118 15.85954504 273.16409118 16.29310513 271.77055836 C16.75644046 270.28617552 17.22536366 268.80351706 17.70166016 267.32324219 C18.25898906 265.24884187 18.25898906 265.24884187 17.05957031 262.4675293 Z M-312.94042969 310.4675293 C-312.94042969 320.6975293 -312.94042969 330.9275293 -312.94042969 341.4675293 C-292.27403941 345.94862891 -271.57267718 350.1988128 -250.83532166 354.33569479 C-246.56888469 355.1871903 -242.30286696 356.04078175 -238.03678894 356.89407349 C-230.91142532 358.31896093 -223.7857698 359.74238052 -216.65991211 361.16479492 C-208.42132046 362.80933739 -200.18314465 364.45595002 -191.9451912 366.10368621 C-183.12750209 367.86735872 -174.30952198 369.62957276 -165.49145293 371.39134455 C-162.95949497 371.89730991 -160.42759178 372.40354857 -157.89570045 372.90984726 C-153.94183009 373.70042137 -149.98776633 374.49002083 -146.03354645 375.27884483 C-144.58096176 375.56877545 -143.12844283 375.85903575 -141.67599297 376.14964104 C-139.70306234 376.54432459 -137.72987289 376.93771364 -135.75666809 377.33102417 C-134.6509335 377.55183592 -133.54519892 377.77264767 -132.40595722 378.00015068 C-130.19491857 378.49857071 -130.19491857 378.49857071 -128.94042969 378.4675293 C-128.94042969 368.2375293 -128.94042969 358.0075293 -128.94042969 347.4675293 C-149.60681996 342.98642969 -170.3081822 338.73624579 -191.04553771 334.5993638 C-195.31197469 333.74786829 -199.57799241 332.89427685 -203.84407043 332.04098511 C-210.96943405 330.61609766 -218.09508957 329.19267807 -225.22094727 327.77026367 C-233.45953891 326.1257212 -241.69771472 324.47910857 -249.93566817 322.83137238 C-258.75335728 321.06769988 -267.5713374 319.30548583 -276.38940644 317.54371405 C-278.9213644 317.03774868 -281.45326759 316.53151002 -283.98515892 316.02521133 C-287.93902928 315.23463722 -291.89309305 314.44503777 -295.84731293 313.65621376 C-297.29989762 313.36628314 -298.75241655 313.07602285 -300.20486641 312.78541756 C-302.17779703 312.390734 -304.15098649 311.99734495 -306.12419128 311.60403442 C-307.22992587 311.38322268 -308.33566046 311.16241093 -309.47490215 310.93490791 C-311.68594081 310.43648788 -311.68594081 310.43648788 -312.94042969 310.4675293 Z M-266.74382019 369.91015625 C-267.41222427 370.58522217 -268.08062836 371.26028809 -268.76928711 371.95581055 C-269.91013008 373.09699341 -269.91013008 373.09699341 -271.07402039 374.26123047 C-271.88974014 375.09243408 -272.7054599 375.9236377 -273.54589844 376.7800293 C-274.3851033 377.623479 -275.22430817 378.46692871 -276.08894348 379.3359375 C-278.77570348 382.03953088 -281.45186404 384.75335398 -284.12792969 387.4675293 C-285.94429986 389.2989402 -287.76134858 391.12967838 -289.57910156 392.9597168 C-294.04078949 397.45453588 -298.49381146 401.9578043 -302.94042969 406.4675293 C-299.99991014 408.42787566 -298.43837581 408.94143078 -295.05761719 409.61254883 C-294.06648926 409.81260529 -293.07536133 410.01266174 -292.05419922 410.21878052 C-290.98540527 410.42719574 -289.91661133 410.63561096 -288.81542969 410.8503418 C-287.7169873 411.06947235 -286.61854492 411.28860291 -285.48681641 411.51437378 C-283.16403978 411.97637583 -280.84061389 412.43512377 -278.51660156 412.89086914 C-274.95324425 413.59001503 -271.39204073 414.2993835 -267.83105469 415.01049805 C-265.57596581 415.45771543 -263.32076121 415.90434974 -261.06542969 416.3503418 C-259.46223877 416.66903732 -259.46223877 416.66903732 -257.82666016 416.99417114 C-256.83553223 417.18792328 -255.8444043 417.38167542 -254.82324219 417.58129883 C-253.51444092 417.8387236 -253.51444092 417.8387236 -252.17919922 418.10134888 C-249.8250731 418.54823844 -249.8250731 418.54823844 -246.94042969 418.4675293 C-246.6281543 417.55052246 -246.31587891 416.63351562 -245.99414062 415.6887207 C-244.81889866 412.23989421 -243.64016463 408.79226929 -242.46044922 405.3449707 C-241.95333223 403.86156506 -241.44712394 402.37784842 -240.94189453 400.89379883 C-238.34619166 393.27117041 -235.75270813 385.68676467 -232.61328125 378.26586914 C-231.82362081 376.47534799 -231.82362081 376.47534799 -231.94042969 374.4675293 C-236.15721733 373.60933598 -240.37475142 372.75494141 -244.59301758 371.90405273 C-246.02779904 371.61407995 -247.46237165 371.32307169 -248.89672852 371.03100586 C-250.95893126 370.61128443 -253.0218574 370.19529724 -255.08496094 369.7800293 C-256.94664917 369.40297852 -256.94664917 369.40297852 -258.84594727 369.01831055 C-263.0958126 368.09081042 -263.0958126 368.09081042 -266.74382019 369.91015625 Z M-214.94042969 378.4675293 C-225.12482944 399.78295576 -225.12482944 399.78295576 -229.94042969 422.4675293 C-194.79542969 429.3975293 -194.79542969 429.3975293 -158.94042969 436.4675293 C-156.30042969 429.5375293 -153.66042969 422.6075293 -150.94042969 415.4675293 C-146.56542969 406.5300293 -146.56542969 406.5300293 -144.60449219 402.81518555 C-143.07392482 399.73608641 -141.93380485 396.75369461 -140.94042969 393.4675293 C-145.10968742 391.99925467 -149.20784074 390.91383246 -153.54077148 390.04711914 C-154.8319841 389.78700043 -156.12319672 389.52688171 -157.45353699 389.25888062 C-158.84887418 388.98190824 -160.24424549 388.7051077 -161.63964844 388.4284668 C-163.08125279 388.14011491 -164.52280578 387.85150614 -165.96430969 387.56265259 C-168.97548096 386.96014228 -171.98716832 386.36030448 -174.99926758 385.76245117 C-178.86047197 384.99590354 -182.72044282 384.22333998 -186.58006573 383.44887352 C-189.55214197 382.85306825 -192.52477774 382.26009578 -195.49759865 381.66801834 C-196.92152588 381.3841359 -198.34529309 381.09944963 -199.7688961 380.81394577 C-201.75479013 380.41618545 -203.74151297 380.02256993 -205.72827148 379.62915039 C-206.85823044 379.4042392 -207.98818939 379.179328 -209.15238953 378.94760132 C-211.96166655 378.38268304 -211.96166655 378.38268304 -214.94042969 378.4675293 Z M-312.94042969 422.4675293 C-312.94042969 432.6975293 -312.94042969 442.9275293 -312.94042969 453.4675293 C-292.27403941 457.94862891 -271.57267718 462.1988128 -250.83532166 466.33569479 C-246.56888469 467.1871903 -242.30286696 468.04078175 -238.03678894 468.89407349 C-230.91142532 470.31896093 -223.7857698 471.74238052 -216.65991211 473.16479492 C-208.42132046 474.80933739 -200.18314465 476.45595002 -191.9451912 478.10368621 C-183.12750209 479.86735872 -174.30952198 481.62957276 -165.49145293 483.39134455 C-162.95949497 483.89730991 -160.42759178 484.40354857 -157.89570045 484.90984726 C-153.94183009 485.70042137 -149.98776633 486.49002083 -146.03354645 487.27884483 C-144.58096176 487.56877545 -143.12844283 487.85903575 -141.67599297 488.14964104 C-139.70306234 488.54432459 -137.72987289 488.93771364 -135.75666809 489.33102417 C-134.6509335 489.55183592 -133.54519892 489.77264767 -132.40595722 490.00015068 C-130.19491857 490.49857071 -130.19491857 490.49857071 -128.94042969 490.4675293 C-128.94042969 480.2375293 -128.94042969 470.0075293 -128.94042969 459.4675293 C-149.60681996 454.98642969 -170.3081822 450.73624579 -191.04553771 446.5993638 C-195.31197469 445.74786829 -199.57799241 444.89427685 -203.84407043 444.04098511 C-210.96943405 442.61609766 -218.09508957 441.19267807 -225.22094727 439.77026367 C-233.45953891 438.1257212 -241.69771472 436.47910857 -249.93566817 434.83137238 C-258.75335728 433.06769988 -267.5713374 431.30548583 -276.38940644 429.54371405 C-278.9213644 429.03774868 -281.45326759 428.53151002 -283.98515892 428.02521133 C-287.93902928 427.23463722 -291.89309305 426.44503777 -295.84731293 425.65621376 C-297.29989762 425.36628314 -298.75241655 425.07602285 -300.20486641 424.78541756 C-302.17779703 424.390734 -304.15098649 423.99734495 -306.12419128 423.60403442 C-307.22992587 423.38322268 -308.33566046 423.16241093 -309.47490215 422.93490791 C-311.68594081 422.43648788 -311.68594081 422.43648788 -312.94042969 422.4675293 Z " fill="#000000" transform="translate(328.9404296875,3.532470703125)"/>
</svg>
